<?xml version="1.0" encoding="UTF-8" standalone="no"?>
<!-- Created with Inkscape (http://www.inkscape.org/) -->

<svg
   xmlns:dc="http://purl.org/dc/elements/1.1/"
   xmlns:cc="http://creativecommons.org/ns#"
   xmlns:rdf="http://www.w3.org/1999/02/22-rdf-syntax-ns#"
   xmlns:svg="http://www.w3.org/2000/svg"
   xmlns="http://www.w3.org/2000/svg"
   version="1.1"
   width="179.23825"
   height="161.97224"
   id="svg3004"
   xml:space="preserve"><metadata
     id="metadata3010"><rdf:RDF><cc:Work
         rdf:about=""><dc:format>image/svg+xml</dc:format><dc:type
           rdf:resource="http://purl.org/dc/dcmitype/StillImage" /><dc:title></dc:title></cc:Work></rdf:RDF></metadata><defs
     id="defs3008"><clipPath
       id="clipPath3020"><path
         d="m 0.06,0 530.913,0 0,499.988 -530.913,0 L 0.06,0 z"
         id="path3022" /></clipPath><clipPath
       id="clipPath3030"><path
         d="M 0,0 531,0 531,500 0,500 0,0 z"
         id="path3032" /></clipPath><clipPath
       id="clipPath3056"><path
         d="m 0.06,0 530.913,0 0,499.988 -530.913,0 L 0.06,0 z"
         id="path3058" /></clipPath><clipPath
       id="clipPath3068"><path
         d="M 0,0 531,0 531,500 0,500 0,0 z"
         id="path3070" /></clipPath></defs><g
     transform="matrix(1.25,0,0,-1.25,-352.11912,624.49525)"
     id="g3012"><g
       id="g3014" /><g
       id="g3016"><g
         clip-path="url(#clipPath3020)"
         id="g3018"><path
           d="m 0.06,0 530.913,0 0,275.986 -530.913,0 L 0.06,0 z"
           id="path3024"
           style="fill:#231f20;fill-opacity:1;fill-rule:nonzero;stroke:none" /></g></g><g
       id="g3026"><g
         clip-path="url(#clipPath3030)"
         id="g3028"><path
           d="m 152.608,444.545 c -8.994,0 -16.288,-7.293 -16.288,-16.29 0,-7.197 4.667,-13.302 11.14,-15.456 0.815,-0.15 1.112,0.353 1.112,0.785 0,0.386 -0.014,1.411 -0.022,2.77 -4.531,-0.984 -5.487,2.184 -5.487,2.184 -0.741,1.882 -1.809,2.383 -1.809,2.383 -1.479,1.01 0.112,0.99 0.112,0.99 1.635,-0.115 2.495,-1.679 2.495,-1.679 1.453,-2.489 3.813,-1.77 4.741,-1.353 0.148,1.052 0.569,1.77 1.034,2.177 -3.617,0.411 -7.42,1.809 -7.42,8.051 0,1.778 0.635,3.233 1.677,4.371 -0.168,0.412 -0.727,2.069 0.16,4.311 0,0 1.367,0.438 4.479,-1.67 1.299,0.362 2.693,0.542 4.078,0.549 1.384,-0.007 2.777,-0.187 4.078,-0.549 3.11,2.108 4.475,1.67 4.475,1.67 0.889,-2.242 0.33,-3.899 0.163,-4.311 1.044,-1.138 1.674,-2.593 1.674,-4.371 0,-6.258 -3.809,-7.635 -7.437,-8.038 0.584,-0.503 1.105,-1.497 1.105,-3.017 0,-2.177 -0.02,-3.934 -0.02,-4.468 0,-0.436 0.294,-0.943 1.12,-0.784 6.468,2.159 11.131,8.26 11.131,15.455 0,8.997 -7.294,16.29 -16.291,16.29"
           id="path3034"
           style="fill:#1b1817;fill-opacity:1;fill-rule:evenodd;stroke:none" /><path
           d="m 350.609,493.555 c -33.347,0 -60.388,-27.036 -60.388,-60.388 0,-26.681 17.303,-49.317 41.297,-57.302 3.018,-0.559 4.126,1.31 4.126,2.905 0,1.44 -0.056,6.197 -0.082,11.243 -16.8,-3.653 -20.345,7.125 -20.345,7.125 -2.747,6.98 -6.705,8.836 -6.705,8.836 -5.479,3.748 0.413,3.671 0.413,3.671 6.064,-0.426 9.257,-6.223 9.257,-6.223 5.386,-9.232 14.127,-6.563 17.573,-5.02 0.542,3.903 2.107,6.567 3.834,8.075 -13.413,1.527 -27.513,6.705 -27.513,29.844 0,6.593 2.359,11.98 6.222,16.209 -0.627,1.521 -2.694,7.663 0.585,15.981 0,0 5.071,1.623 16.611,-6.19 4.817,1.338 9.983,2.009 15.115,2.032 5.132,-0.023 10.302,-0.694 15.128,-2.032 11.526,7.813 16.59,6.19 16.59,6.19 3.287,-8.318 1.219,-14.46 0.592,-15.981 3.872,-4.229 6.215,-9.616 6.215,-16.209 0,-23.194 -14.127,-28.301 -27.574,-29.796 2.166,-1.874 4.096,-5.549 4.096,-11.183 0,-8.08 -0.07,-14.583 -0.07,-16.572 0,-1.607 1.087,-3.49 4.148,-2.897 23.981,7.994 41.262,30.622 41.262,57.294 0,33.352 -27.037,60.388 -60.387,60.388"
           id="path3036"
           style="fill:#1b1817;fill-opacity:1;fill-rule:evenodd;stroke:none" /><path
           d="m 313.093,406.851 c -0.133,-0.3 -0.605,-0.39 -1.035,-0.184 -0.438,0.197 -0.684,0.606 -0.542,0.907 0.13,0.309 0.603,0.395 1.04,0.188 0.439,-0.197 0.689,-0.61 0.537,-0.911"
           id="path3038"
           style="fill:#1b1817;fill-opacity:1;fill-rule:nonzero;stroke:none" /><path
           d="m 315.539,404.123 c -0.288,-0.267 -0.851,-0.143 -1.233,0.279 -0.395,0.421 -0.469,0.984 -0.177,1.255 0.297,0.267 0.843,0.142 1.239,-0.279 0.395,-0.426 0.472,-0.985 0.171,-1.255"
           id="path3040"
           style="fill:#1b1817;fill-opacity:1;fill-rule:nonzero;stroke:none" /><path
           d="m 317.92,400.645 c -0.37,-0.257 -0.975,-0.016 -1.349,0.521 -0.37,0.537 -0.37,1.181 0.008,1.439 0.375,0.258 0.971,0.026 1.35,-0.507 0.369,-0.546 0.369,-1.19 -0.009,-1.453"
           id="path3042"
           style="fill:#1b1817;fill-opacity:1;fill-rule:nonzero;stroke:none" /><path
           d="m 321.182,397.285 c -0.331,-0.365 -1.036,-0.267 -1.552,0.231 -0.528,0.487 -0.675,1.178 -0.343,1.543 0.335,0.366 1.044,0.263 1.564,-0.231 0.524,-0.486 0.684,-1.182 0.331,-1.543"
           id="path3044"
           style="fill:#1b1817;fill-opacity:1;fill-rule:nonzero;stroke:none" /><path
           d="m 325.682,395.334 c -0.146,-0.473 -0.825,-0.688 -1.509,-0.487 -0.683,0.207 -1.13,0.761 -0.992,1.239 0.142,0.476 0.824,0.7 1.513,0.485 0.682,-0.206 1.13,-0.756 0.988,-1.237"
           id="path3046"
           style="fill:#1b1817;fill-opacity:1;fill-rule:nonzero;stroke:none" /><path
           d="m 330.624,394.972 c 0.017,-0.498 -0.563,-0.911 -1.281,-0.92 -0.722,-0.016 -1.306,0.387 -1.314,0.877 0,0.503 0.567,0.912 1.289,0.924 0.718,0.014 1.306,-0.386 1.306,-0.881"
           id="path3048"
           style="fill:#1b1817;fill-opacity:1;fill-rule:nonzero;stroke:none" /><path
           d="m 335.223,395.755 c 0.086,-0.486 -0.413,-0.985 -1.126,-1.118 -0.701,-0.128 -1.35,0.172 -1.439,0.654 -0.087,0.498 0.421,0.997 1.121,1.126 0.714,0.124 1.353,-0.168 1.444,-0.662"
           id="path3050"
           style="fill:#1b1817;fill-opacity:1;fill-rule:nonzero;stroke:none" /></g></g><g
       id="g3052"><g
         clip-path="url(#clipPath3056)"
         id="g3054"><path
           d="m 224.898,499.488 0,-0.5"
           id="path3060"
           style="fill:none;stroke:#3a7fc3;stroke-width:1;stroke-linecap:round;stroke-linejoin:miter;stroke-miterlimit:10;stroke-opacity:1;stroke-dasharray:none" /><path
           d="m 224.898,496.988 0,-133.993"
           id="path3062"
           style="fill:none;stroke:#3a7fc3;stroke-width:1;stroke-linecap:round;stroke-linejoin:miter;stroke-miterlimit:10;stroke-opacity:1;stroke-dasharray:1, 2;stroke-dashoffset:0" /></g></g><g
       id="g3064"><g
         clip-path="url(#clipPath3068)"
         id="g3066"><path
           d="m 224.898,361.995 0,-0.5"
           id="path3072"
           style="fill:none;stroke:#3a7fc3;stroke-width:1;stroke-linecap:round;stroke-linejoin:miter;stroke-miterlimit:10;stroke-opacity:1;stroke-dasharray:none" /><path
           d="m 133.276,347.479 c -0.381,0.277 -0.866,0.414 -1.458,0.414 -0.24,0 -0.476,-0.024 -0.708,-0.071 -0.233,-0.049 -0.438,-0.129 -0.618,-0.24 -0.18,-0.114 -0.324,-0.263 -0.433,-0.451 -0.107,-0.188 -0.161,-0.422 -0.161,-0.702 0,-0.263 0.077,-0.478 0.234,-0.642 0.155,-0.164 0.364,-0.298 0.624,-0.401 0.26,-0.105 0.553,-0.191 0.882,-0.259 0.328,-0.068 0.662,-0.142 1.002,-0.221 0.34,-0.08 0.673,-0.175 1.002,-0.283 0.328,-0.108 0.622,-0.254 0.882,-0.438 0.26,-0.183 0.468,-0.416 0.624,-0.695 0.156,-0.281 0.234,-0.633 0.234,-1.057 0,-0.456 -0.102,-0.845 -0.306,-1.17 -0.205,-0.324 -0.466,-0.588 -0.786,-0.792 -0.32,-0.204 -0.678,-0.352 -1.074,-0.444 -0.396,-0.092 -0.79,-0.138 -1.182,-0.138 -0.48,0 -0.934,0.06 -1.362,0.18 -0.428,0.12 -0.804,0.302 -1.128,0.546 -0.324,0.244 -0.58,0.557 -0.768,0.937 -0.188,0.379 -0.282,0.829 -0.282,1.349 l 1.08,0 c 0,-0.36 0.069,-0.67 0.21,-0.93 0.14,-0.26 0.324,-0.473 0.552,-0.641 0.228,-0.168 0.493,-0.293 0.798,-0.373 0.304,-0.08 0.615,-0.119 0.936,-0.119 0.256,0 0.514,0.023 0.774,0.072 0.26,0.047 0.494,0.129 0.702,0.246 0.208,0.115 0.376,0.273 0.504,0.473 0.128,0.201 0.192,0.457 0.192,0.768 0,0.296 -0.079,0.536 -0.234,0.72 -0.156,0.183 -0.365,0.334 -0.624,0.45 -0.261,0.116 -0.555,0.21 -0.882,0.282 -0.328,0.073 -0.662,0.147 -1.002,0.223 -0.34,0.075 -0.674,0.163 -1.002,0.264 -0.328,0.099 -0.623,0.231 -0.882,0.395 -0.26,0.164 -0.468,0.376 -0.624,0.636 -0.156,0.26 -0.234,0.586 -0.234,0.978 0,0.432 0.088,0.806 0.264,1.123 0.176,0.315 0.41,0.575 0.702,0.78 0.292,0.203 0.624,0.355 0.996,0.455 0.372,0.101 0.754,0.15 1.146,0.15 0.44,0 0.848,-0.053 1.224,-0.156 0.376,-0.104 0.706,-0.268 0.989,-0.492 0.285,-0.224 0.509,-0.506 0.673,-0.846 0.163,-0.34 0.254,-0.746 0.27,-1.218 l -1.08,0 c -0.065,0.617 -0.286,1.062 -0.666,1.338"
           id="path3074"
           style="fill:#176fc1;fill-opacity:1;fill-rule:nonzero;stroke:none" /><path
           d="m 137.554,346.285 0,-0.912 0.024,0 c 0.463,0.705 1.131,1.056 2.003,1.056 0.385,0 0.732,-0.08 1.044,-0.24 0.313,-0.16 0.533,-0.431 0.661,-0.816 0.208,0.336 0.482,0.595 0.822,0.78 0.34,0.185 0.714,0.276 1.121,0.276 0.312,0 0.595,-0.034 0.847,-0.101 0.252,-0.069 0.467,-0.175 0.648,-0.319 0.18,-0.144 0.319,-0.33 0.419,-0.558 0.101,-0.228 0.15,-0.502 0.15,-0.822 l 0,-4.547 -1.019,0 0,4.067 c 0,0.193 -0.017,0.372 -0.049,0.54 -0.031,0.168 -0.091,0.315 -0.179,0.438 -0.089,0.125 -0.211,0.222 -0.366,0.295 -0.156,0.072 -0.358,0.107 -0.606,0.107 -0.504,0 -0.9,-0.143 -1.188,-0.432 -0.288,-0.288 -0.432,-0.672 -0.432,-1.152 l 0,-3.863 -1.021,0 0,4.067 c 0,0.2 -0.018,0.384 -0.053,0.552 -0.036,0.168 -0.098,0.314 -0.186,0.438 -0.089,0.124 -0.206,0.22 -0.354,0.288 -0.149,0.069 -0.339,0.102 -0.57,0.102 -0.296,0 -0.55,-0.059 -0.762,-0.18 -0.213,-0.12 -0.385,-0.263 -0.516,-0.431 -0.132,-0.168 -0.228,-0.342 -0.288,-0.523 -0.061,-0.18 -0.09,-0.33 -0.09,-0.45 l 0,-3.863 -1.02,0 0,6.203 0.96,0"
           id="path3076"
           style="fill:#176fc1;fill-opacity:1;fill-rule:nonzero;stroke:none" /><path
           d="m 150.165,343.076 c -0.208,-0.045 -0.425,-0.08 -0.653,-0.108 -0.228,-0.029 -0.459,-0.06 -0.691,-0.097 -0.232,-0.035 -0.44,-0.094 -0.623,-0.174 -0.185,-0.08 -0.335,-0.193 -0.451,-0.342 -0.116,-0.148 -0.173,-0.349 -0.173,-0.605 0,-0.168 0.033,-0.311 0.101,-0.426 0.068,-0.117 0.156,-0.211 0.264,-0.283 0.108,-0.071 0.236,-0.123 0.385,-0.155 0.148,-0.033 0.297,-0.048 0.449,-0.048 0.336,0 0.624,0.045 0.865,0.137 0.239,0.092 0.435,0.208 0.587,0.349 0.152,0.139 0.265,0.291 0.336,0.455 0.072,0.164 0.108,0.318 0.108,0.463 l 0,1.043 c -0.128,-0.096 -0.296,-0.166 -0.504,-0.209 z m 1.429,-3.127 c -0.265,0 -0.474,0.074 -0.631,0.223 -0.155,0.147 -0.234,0.389 -0.234,0.725 -0.28,-0.336 -0.606,-0.578 -0.978,-0.725 -0.372,-0.149 -0.774,-0.223 -1.206,-0.223 -0.279,0 -0.544,0.03 -0.792,0.09 -0.248,0.06 -0.466,0.16 -0.653,0.301 -0.188,0.139 -0.336,0.319 -0.444,0.539 -0.109,0.22 -0.162,0.486 -0.162,0.798 0,0.352 0.06,0.64 0.179,0.864 0.12,0.224 0.278,0.406 0.474,0.547 0.196,0.139 0.42,0.246 0.672,0.318 0.252,0.071 0.51,0.131 0.775,0.18 0.279,0.055 0.546,0.097 0.798,0.125 0.251,0.028 0.474,0.068 0.666,0.121 0.191,0.051 0.343,0.127 0.456,0.227 0.111,0.101 0.168,0.246 0.168,0.439 0,0.222 -0.042,0.403 -0.126,0.539 -0.084,0.137 -0.193,0.24 -0.325,0.312 -0.131,0.073 -0.28,0.121 -0.444,0.145 -0.164,0.023 -0.326,0.035 -0.485,0.035 -0.432,0 -0.792,-0.082 -1.08,-0.246 -0.289,-0.164 -0.445,-0.474 -0.469,-0.93 l -1.02,0 c 0.016,0.384 0.096,0.708 0.241,0.973 0.144,0.264 0.335,0.478 0.575,0.642 0.24,0.163 0.516,0.282 0.828,0.354 0.312,0.071 0.64,0.107 0.984,0.107 0.281,0 0.558,-0.019 0.834,-0.06 0.277,-0.039 0.527,-0.121 0.75,-0.246 0.224,-0.123 0.405,-0.298 0.54,-0.522 0.136,-0.224 0.204,-0.515 0.204,-0.876 l 0,-3.192 c 0,-0.24 0.015,-0.416 0.042,-0.527 0.028,-0.113 0.123,-0.168 0.283,-0.168 0.088,0 0.191,0.019 0.312,0.059 l 0,-0.792 c -0.177,-0.103 -0.42,-0.156 -0.732,-0.156"
           id="path3078"
           style="fill:#176fc1;fill-opacity:1;fill-rule:nonzero;stroke:none" /><path
           d="m 153.333,340.082 1.021,0 0,8.567 -1.021,0 0,-8.567 z"
           id="path3080"
           style="fill:#176fc1;fill-opacity:1;fill-rule:nonzero;stroke:none" /><path
           d="m 155.997,340.082 1.02,0 0,8.567 -1.02,0 0,-8.567 z"
           id="path3082"
           style="fill:#176fc1;fill-opacity:1;fill-rule:nonzero;stroke:none" /><path
           d="m 101.854,330.986 0,0.9 1.044,0 0,0.923 c 0,0.504 0.146,0.886 0.438,1.146 0.292,0.26 0.718,0.39 1.278,0.39 0.096,0 0.206,-0.007 0.33,-0.023 0.124,-0.017 0.234,-0.041 0.33,-0.072 l 0,-0.889 c -0.088,0.032 -0.184,0.055 -0.288,0.066 -0.104,0.012 -0.2,0.018 -0.288,0.018 -0.248,0 -0.44,-0.048 -0.576,-0.143 -0.136,-0.097 -0.204,-0.281 -0.204,-0.552 l 0,-0.864 1.2,0 0,-0.9 -1.2,0 0,-5.305 -1.02,0 0,5.305 -1.044,0"
           id="path3084"
           style="fill:#176fc1;fill-opacity:1;fill-rule:nonzero;stroke:none" /><path
           d="m 106.924,327.775 c 0.099,-0.292 0.238,-0.535 0.414,-0.732 0.176,-0.196 0.382,-0.346 0.617,-0.45 0.236,-0.103 0.487,-0.156 0.75,-0.156 0.265,0 0.515,0.053 0.75,0.156 0.236,0.104 0.442,0.254 0.619,0.45 0.175,0.197 0.314,0.44 0.414,0.732 0.1,0.292 0.15,0.626 0.15,1.002 0,0.377 -0.05,0.71 -0.15,1.002 -0.1,0.293 -0.239,0.538 -0.414,0.738 -0.177,0.2 -0.383,0.352 -0.619,0.456 -0.235,0.105 -0.485,0.157 -0.75,0.157 -0.263,0 -0.514,-0.052 -0.75,-0.157 -0.235,-0.104 -0.441,-0.256 -0.617,-0.456 -0.176,-0.2 -0.315,-0.445 -0.414,-0.738 -0.1,-0.292 -0.15,-0.625 -0.15,-1.002 0,-0.376 0.05,-0.71 0.15,-1.002 z m -1.038,2.28 c 0.128,0.396 0.319,0.74 0.576,1.033 0.256,0.291 0.572,0.521 0.948,0.689 0.376,0.168 0.808,0.252 1.295,0.252 0.497,0 0.931,-0.084 1.303,-0.252 0.372,-0.168 0.685,-0.398 0.942,-0.689 0.255,-0.293 0.447,-0.637 0.576,-1.033 0.128,-0.395 0.192,-0.822 0.192,-1.278 0,-0.455 -0.064,-0.88 -0.192,-1.271 -0.129,-0.393 -0.321,-0.735 -0.576,-1.027 -0.257,-0.292 -0.57,-0.52 -0.942,-0.684 -0.372,-0.163 -0.806,-0.245 -1.303,-0.245 -0.487,0 -0.919,0.082 -1.295,0.245 -0.376,0.164 -0.692,0.392 -0.948,0.684 -0.257,0.292 -0.448,0.634 -0.576,1.027 -0.128,0.391 -0.192,0.816 -0.192,1.271 0,0.456 0.064,0.883 0.192,1.278"
           id="path3086"
           style="fill:#176fc1;fill-opacity:1;fill-rule:nonzero;stroke:none" /><path
           d="m 113.842,331.886 0,-1.308 0.024,0 c 0.248,0.504 0.552,0.875 0.912,1.115 0.36,0.24 0.816,0.352 1.368,0.336 l 0,-1.08 c -0.408,0 -0.756,-0.056 -1.044,-0.168 -0.288,-0.111 -0.521,-0.275 -0.696,-0.492 -0.176,-0.215 -0.305,-0.478 -0.384,-0.785 -0.08,-0.309 -0.12,-0.662 -0.12,-1.063 l 0,-2.76 -1.02,0 0,6.205 0.96,0"
           id="path3088"
           style="fill:#176fc1;fill-opacity:1;fill-rule:nonzero;stroke:none" /><path
           d="m 122.733,325.681 0,6.096 -2.208,0 0,0.816 c 0.288,0 0.568,0.022 0.84,0.067 0.272,0.043 0.518,0.125 0.738,0.246 0.22,0.119 0.406,0.283 0.559,0.491 0.151,0.208 0.255,0.472 0.312,0.792 l 0.779,0 0,-8.508 -1.02,0"
           id="path3090"
           style="fill:#176fc1;fill-opacity:1;fill-rule:nonzero;stroke:none" /><path
           d="m 128.829,330.103 c -0.215,-0.099 -0.399,-0.236 -0.551,-0.408 -0.152,-0.172 -0.266,-0.376 -0.342,-0.611 -0.076,-0.237 -0.114,-0.487 -0.114,-0.75 0,-0.264 0.04,-0.512 0.12,-0.744 0.079,-0.233 0.194,-0.432 0.342,-0.6 0.148,-0.168 0.332,-0.303 0.552,-0.402 0.22,-0.101 0.47,-0.151 0.75,-0.151 0.28,0 0.526,0.05 0.738,0.151 0.212,0.099 0.39,0.238 0.534,0.414 0.144,0.175 0.254,0.378 0.33,0.605 0.076,0.229 0.114,0.467 0.114,0.715 0,0.264 -0.034,0.514 -0.102,0.75 -0.068,0.235 -0.174,0.439 -0.318,0.611 -0.144,0.172 -0.324,0.311 -0.54,0.414 -0.216,0.104 -0.468,0.157 -0.756,0.157 -0.288,0 -0.54,-0.051 -0.757,-0.151 z m 1.849,2.838 c -0.248,0.233 -0.576,0.348 -0.984,0.348 -0.432,0 -0.781,-0.106 -1.044,-0.318 -0.264,-0.212 -0.47,-0.479 -0.618,-0.803 -0.148,-0.325 -0.25,-0.674 -0.307,-1.051 -0.055,-0.375 -0.087,-0.728 -0.095,-1.056 l 0.024,-0.024 c 0.24,0.392 0.538,0.676 0.894,0.852 0.356,0.176 0.766,0.265 1.23,0.265 0.408,0 0.774,-0.07 1.098,-0.211 0.324,-0.139 0.596,-0.334 0.816,-0.582 0.22,-0.248 0.39,-0.539 0.51,-0.875 0.12,-0.337 0.18,-0.701 0.18,-1.093 0,-0.311 -0.048,-0.635 -0.144,-0.971 -0.096,-0.336 -0.254,-0.643 -0.474,-0.918 -0.221,-0.277 -0.512,-0.504 -0.876,-0.684 -0.364,-0.181 -0.814,-0.27 -1.351,-0.27 -0.631,0 -1.139,0.127 -1.523,0.383 -0.384,0.256 -0.68,0.584 -0.888,0.985 -0.209,0.399 -0.346,0.84 -0.414,1.32 -0.069,0.48 -0.102,0.943 -0.102,1.392 0,0.583 0.05,1.149 0.15,1.698 0.1,0.547 0.27,1.033 0.51,1.457 0.24,0.424 0.559,0.764 0.96,1.02 0.4,0.256 0.904,0.384 1.512,0.384 0.704,0 1.264,-0.185 1.68,-0.557 0.416,-0.373 0.656,-0.911 0.72,-1.615 l -1.021,0 c -0.047,0.385 -0.195,0.692 -0.443,0.924"
           id="path3092"
           style="fill:#176fc1;fill-opacity:1;fill-rule:nonzero;stroke:none" /><path
           d="m 138.316,329.683 c -0.076,0.276 -0.193,0.522 -0.348,0.739 -0.157,0.216 -0.356,0.387 -0.6,0.515 -0.245,0.128 -0.531,0.193 -0.858,0.193 -0.345,0 -0.637,-0.069 -0.876,-0.205 -0.241,-0.136 -0.436,-0.314 -0.588,-0.534 -0.153,-0.219 -0.262,-0.469 -0.33,-0.75 -0.069,-0.28 -0.102,-0.563 -0.102,-0.852 0,-0.304 0.036,-0.598 0.108,-0.881 0.071,-0.285 0.186,-0.535 0.341,-0.75 0.157,-0.217 0.358,-0.391 0.607,-0.522 0.247,-0.132 0.548,-0.199 0.9,-0.199 0.351,0 0.646,0.069 0.882,0.204 0.236,0.136 0.425,0.316 0.569,0.54 0.144,0.224 0.249,0.481 0.312,0.768 0.064,0.289 0.097,0.584 0.097,0.889 0,0.287 -0.038,0.57 -0.114,0.845 z m -3.666,2.203 0,-0.841 0.024,0 c 0.168,0.344 0.431,0.594 0.792,0.75 0.36,0.156 0.756,0.234 1.188,0.234 0.48,0 0.898,-0.088 1.254,-0.264 0.356,-0.175 0.651,-0.414 0.888,-0.713 0.236,-0.3 0.413,-0.647 0.533,-1.039 0.121,-0.392 0.181,-0.808 0.181,-1.248 0,-0.439 -0.058,-0.855 -0.175,-1.248 -0.115,-0.392 -0.292,-0.734 -0.527,-1.025 -0.236,-0.293 -0.533,-0.522 -0.888,-0.69 -0.357,-0.168 -0.771,-0.252 -1.242,-0.252 -0.153,0 -0.323,0.016 -0.511,0.047 -0.188,0.033 -0.374,0.084 -0.557,0.157 -0.184,0.072 -0.359,0.17 -0.522,0.294 -0.164,0.124 -0.302,0.278 -0.414,0.461 l -0.024,0 0,-3.191 -1.02,0 0,8.568 1.02,0"
           id="path3094"
           style="fill:#176fc1;fill-opacity:1;fill-rule:nonzero;stroke:none" /><path
           d="m 140.217,331.886 1.308,0 1.488,-2.172 1.548,2.172 1.225,0 -2.137,-2.857 2.4,-3.348 -1.308,0 -1.728,2.569 -1.727,-2.569 -1.237,0 2.328,3.264 -2.16,2.941"
           id="path3096"
           style="fill:#176fc1;fill-opacity:1;fill-rule:nonzero;stroke:none" /><path
           d="m 146.757,328.537 3.468,0 0,0.961 -3.468,0 0,-0.961 z"
           id="path3098"
           style="fill:#176fc1;fill-opacity:1;fill-rule:nonzero;stroke:none" /><path
           d="m 154.077,325.681 0,6.096 -2.208,0 0,0.816 c 0.288,0 0.568,0.022 0.84,0.067 0.272,0.043 0.518,0.125 0.738,0.246 0.22,0.119 0.406,0.283 0.558,0.491 0.152,0.208 0.256,0.472 0.312,0.792 l 0.78,0 0,-8.508 -1.02,0"
           id="path3100"
           style="fill:#176fc1;fill-opacity:1;fill-rule:nonzero;stroke:none" /><path
           d="m 158.157,332.377 c 0.112,0.369 0.286,0.686 0.522,0.955 0.236,0.267 0.53,0.477 0.882,0.629 0.352,0.152 0.752,0.228 1.2,0.228 0.368,0 0.714,-0.053 1.038,-0.162 0.324,-0.107 0.606,-0.264 0.846,-0.468 0.24,-0.204 0.43,-0.458 0.57,-0.761 0.14,-0.304 0.21,-0.657 0.21,-1.056 0,-0.377 -0.058,-0.709 -0.174,-0.996 -0.116,-0.289 -0.27,-0.547 -0.462,-0.775 -0.192,-0.227 -0.412,-0.434 -0.66,-0.618 -0.248,-0.183 -0.504,-0.359 -0.768,-0.527 -0.264,-0.16 -0.528,-0.318 -0.792,-0.475 -0.264,-0.156 -0.506,-0.322 -0.726,-0.498 -0.22,-0.176 -0.408,-0.365 -0.564,-0.57 -0.156,-0.203 -0.258,-0.438 -0.306,-0.701 l 4.368,0 0,-0.901 -5.556,0 c 0.04,0.504 0.13,0.934 0.27,1.29 0.14,0.357 0.318,0.667 0.534,0.931 0.216,0.264 0.46,0.495 0.732,0.695 0.272,0.2 0.556,0.388 0.852,0.565 0.36,0.224 0.676,0.43 0.948,0.617 0.272,0.188 0.498,0.379 0.678,0.57 0.18,0.192 0.316,0.401 0.408,0.624 0.092,0.224 0.138,0.484 0.138,0.781 0,0.231 -0.044,0.441 -0.132,0.63 -0.088,0.187 -0.206,0.349 -0.354,0.485 -0.148,0.137 -0.322,0.24 -0.522,0.312 -0.2,0.073 -0.412,0.108 -0.636,0.108 -0.296,0 -0.55,-0.062 -0.762,-0.186 -0.212,-0.124 -0.386,-0.286 -0.522,-0.486 -0.136,-0.199 -0.234,-0.426 -0.294,-0.678 -0.06,-0.252 -0.086,-0.506 -0.078,-0.762 l -1.02,0 c -0.024,0.432 0.02,0.832 0.132,1.2"
           id="path3102"
           style="fill:#176fc1;fill-opacity:1;fill-rule:nonzero;stroke:none" /><path
           d="m 165.783,328.795 c 0.02,-0.396 0.085,-0.768 0.192,-1.116 0.108,-0.347 0.282,-0.642 0.522,-0.881 0.24,-0.241 0.576,-0.361 1.008,-0.361 0.433,0 0.768,0.12 1.009,0.361 0.239,0.239 0.413,0.534 0.522,0.881 0.107,0.348 0.171,0.72 0.191,1.116 0.02,0.396 0.03,0.755 0.03,1.074 0,0.209 -0.002,0.438 -0.006,0.69 -0.004,0.252 -0.024,0.504 -0.06,0.756 -0.036,0.253 -0.087,0.498 -0.155,0.739 -0.069,0.239 -0.168,0.45 -0.301,0.629 -0.131,0.18 -0.297,0.326 -0.498,0.438 -0.2,0.112 -0.444,0.168 -0.732,0.168 -0.288,0 -0.532,-0.056 -0.732,-0.168 -0.2,-0.112 -0.366,-0.258 -0.498,-0.438 -0.132,-0.179 -0.232,-0.39 -0.3,-0.629 -0.068,-0.241 -0.12,-0.486 -0.156,-0.739 -0.036,-0.252 -0.056,-0.504 -0.06,-0.756 -0.004,-0.252 -0.006,-0.481 -0.006,-0.69 0,-0.319 0.01,-0.678 0.03,-1.074 z m -1.086,2.035 c 0.016,0.336 0.056,0.664 0.12,0.983 0.064,0.32 0.157,0.624 0.276,0.912 0.12,0.288 0.284,0.54 0.492,0.756 0.208,0.216 0.47,0.388 0.786,0.517 0.317,0.127 0.694,0.191 1.134,0.191 0.44,0 0.818,-0.064 1.135,-0.191 0.315,-0.129 0.577,-0.301 0.785,-0.517 0.208,-0.216 0.372,-0.468 0.492,-0.756 0.12,-0.288 0.212,-0.592 0.276,-0.912 0.064,-0.319 0.104,-0.647 0.12,-0.983 0.016,-0.336 0.024,-0.66 0.024,-0.973 0,-0.312 -0.008,-0.636 -0.024,-0.971 -0.016,-0.336 -0.056,-0.665 -0.12,-0.984 -0.064,-0.32 -0.156,-0.623 -0.276,-0.906 -0.12,-0.285 -0.284,-0.535 -0.492,-0.75 -0.208,-0.217 -0.468,-0.387 -0.78,-0.51 -0.312,-0.125 -0.691,-0.186 -1.14,-0.186 -0.44,0 -0.817,0.061 -1.134,0.186 -0.316,0.123 -0.578,0.293 -0.786,0.51 -0.208,0.215 -0.372,0.465 -0.492,0.75 -0.119,0.283 -0.212,0.586 -0.276,0.906 -0.064,0.319 -0.104,0.648 -0.12,0.984 -0.016,0.335 -0.024,0.659 -0.024,0.971 0,0.313 0.008,0.637 0.024,0.973"
           id="path3104"
           style="fill:#176fc1;fill-opacity:1;fill-rule:nonzero;stroke:none" /><path
           d="m 176.331,329.683 c -0.076,0.276 -0.192,0.522 -0.348,0.739 -0.156,0.216 -0.356,0.387 -0.6,0.515 -0.244,0.128 -0.53,0.193 -0.858,0.193 -0.344,0 -0.636,-0.069 -0.876,-0.205 -0.24,-0.136 -0.436,-0.314 -0.588,-0.534 -0.152,-0.219 -0.262,-0.469 -0.33,-0.75 -0.068,-0.28 -0.102,-0.563 -0.102,-0.852 0,-0.304 0.036,-0.598 0.108,-0.881 0.072,-0.285 0.186,-0.535 0.342,-0.75 0.156,-0.217 0.358,-0.391 0.607,-0.522 0.247,-0.132 0.547,-0.199 0.899,-0.199 0.352,0 0.646,0.069 0.882,0.204 0.236,0.136 0.426,0.316 0.57,0.54 0.144,0.224 0.248,0.481 0.312,0.768 0.064,0.289 0.096,0.584 0.096,0.889 0,0.287 -0.038,0.57 -0.114,0.845 z m -3.666,2.203 0,-0.841 0.024,0 c 0.168,0.344 0.432,0.594 0.792,0.75 0.36,0.156 0.756,0.234 1.188,0.234 0.48,0 0.898,-0.088 1.254,-0.264 0.356,-0.175 0.652,-0.414 0.888,-0.713 0.236,-0.3 0.414,-0.647 0.534,-1.039 0.12,-0.392 0.18,-0.808 0.18,-1.248 0,-0.439 -0.058,-0.855 -0.174,-1.248 -0.116,-0.392 -0.292,-0.734 -0.528,-1.025 -0.236,-0.293 -0.532,-0.522 -0.887,-0.69 -0.357,-0.168 -0.771,-0.252 -1.243,-0.252 -0.152,0 -0.322,0.016 -0.51,0.047 -0.188,0.033 -0.374,0.084 -0.558,0.157 -0.184,0.072 -0.358,0.17 -0.521,0.294 -0.165,0.124 -0.303,0.278 -0.415,0.461 l -0.024,0 0,-3.191 -1.02,0 0,8.568 1.02,0"
           id="path3106"
           style="fill:#176fc1;fill-opacity:1;fill-rule:nonzero;stroke:none" /><path
           d="m 178.233,331.886 1.308,0 1.488,-2.172 1.548,2.172 1.224,0 -2.136,-2.857 2.4,-3.348 -1.308,0 -1.728,2.569 -1.728,-2.569 -1.236,0 2.328,3.264 -2.16,2.941"
           id="path3108"
           style="fill:#176fc1;fill-opacity:1;fill-rule:nonzero;stroke:none" /><path
           d="m 335.633,348.65 0,-7.607 4.536,0 0,-0.961 -5.675,0 0,8.568 1.139,0"
           id="path3110"
           style="fill:#176fc1;fill-opacity:1;fill-rule:nonzero;stroke:none" /><path
           d="m 344.333,343.076 c -0.209,-0.044 -0.425,-0.08 -0.654,-0.108 -0.228,-0.028 -0.459,-0.06 -0.69,-0.095 -0.232,-0.037 -0.441,-0.095 -0.624,-0.174 -0.184,-0.08 -0.334,-0.195 -0.45,-0.343 -0.117,-0.147 -0.173,-0.35 -0.173,-0.606 0,-0.168 0.033,-0.31 0.101,-0.426 0.068,-0.115 0.156,-0.209 0.264,-0.281 0.107,-0.073 0.236,-0.125 0.385,-0.157 0.147,-0.032 0.296,-0.048 0.449,-0.048 0.336,0 0.624,0.046 0.864,0.138 0.239,0.092 0.436,0.208 0.588,0.348 0.151,0.141 0.265,0.293 0.336,0.457 0.071,0.163 0.108,0.317 0.108,0.461 l 0,1.045 c -0.129,-0.097 -0.297,-0.166 -0.504,-0.211 z m 1.428,-3.125 c -0.264,0 -0.474,0.073 -0.631,0.221 -0.155,0.148 -0.233,0.39 -0.233,0.726 -0.28,-0.336 -0.607,-0.578 -0.978,-0.726 -0.373,-0.148 -0.774,-0.221 -1.207,-0.221 -0.279,0 -0.543,0.029 -0.791,0.09 -0.248,0.059 -0.467,0.16 -0.654,0.299 -0.188,0.14 -0.336,0.32 -0.443,0.541 -0.11,0.219 -0.162,0.486 -0.162,0.798 0,0.351 0.059,0.639 0.179,0.864 0.119,0.223 0.278,0.405 0.474,0.545 0.196,0.14 0.42,0.246 0.672,0.318 0.252,0.072 0.51,0.133 0.774,0.18 0.279,0.056 0.546,0.098 0.798,0.127 0.252,0.027 0.474,0.067 0.666,0.119 0.192,0.052 0.344,0.129 0.456,0.228 0.111,0.1 0.168,0.246 0.168,0.438 0,0.224 -0.042,0.404 -0.126,0.541 -0.084,0.135 -0.192,0.239 -0.324,0.311 -0.132,0.072 -0.28,0.12 -0.445,0.144 -0.164,0.024 -0.326,0.037 -0.485,0.037 -0.432,0 -0.792,-0.083 -1.08,-0.246 -0.288,-0.164 -0.444,-0.475 -0.468,-0.931 l -1.02,0 c 0.016,0.384 0.096,0.708 0.24,0.972 0.144,0.264 0.336,0.478 0.575,0.642 0.24,0.165 0.517,0.282 0.828,0.354 0.313,0.072 0.641,0.108 0.985,0.108 0.28,0 0.558,-0.02 0.834,-0.059 0.276,-0.041 0.526,-0.123 0.75,-0.246 0.224,-0.125 0.404,-0.299 0.54,-0.523 0.135,-0.223 0.204,-0.516 0.204,-0.876 l 0,-3.191 c 0,-0.24 0.014,-0.416 0.042,-0.529 0.028,-0.112 0.122,-0.168 0.282,-0.168 0.088,0 0.191,0.02 0.313,0.06 l 0,-0.792 c -0.177,-0.104 -0.42,-0.155 -0.733,-0.155"
           id="path3112"
           style="fill:#176fc1;fill-opacity:1;fill-rule:nonzero;stroke:none" /><path
           d="m 348.365,346.287 0,-1.309 0.023,0 c 0.248,0.504 0.553,0.876 0.912,1.117 0.361,0.239 0.817,0.351 1.369,0.335 l 0,-1.08 c -0.408,0 -0.756,-0.055 -1.045,-0.168 -0.287,-0.112 -0.519,-0.276 -0.695,-0.492 -0.176,-0.216 -0.305,-0.477 -0.385,-0.786 -0.08,-0.308 -0.119,-0.662 -0.119,-1.062 l 0,-2.76 -1.02,0 0,6.205 0.96,0"
           id="path3114"
           style="fill:#176fc1;fill-opacity:1;fill-rule:nonzero;stroke:none" /><path
           d="m 354.454,341.121 c 0.237,0.138 0.426,0.323 0.571,0.551 0.144,0.228 0.25,0.486 0.318,0.774 0.068,0.288 0.102,0.576 0.102,0.864 0,0.272 -0.032,0.54 -0.096,0.805 -0.064,0.264 -0.166,0.502 -0.307,0.713 -0.139,0.213 -0.322,0.383 -0.545,0.51 -0.224,0.129 -0.496,0.193 -0.816,0.193 -0.328,0 -0.608,-0.063 -0.84,-0.186 -0.232,-0.125 -0.422,-0.291 -0.57,-0.499 -0.149,-0.208 -0.256,-0.448 -0.324,-0.719 -0.069,-0.273 -0.102,-0.557 -0.102,-0.853 0,-0.28 0.027,-0.559 0.084,-0.84 0.056,-0.28 0.152,-0.534 0.287,-0.762 0.137,-0.228 0.317,-0.413 0.541,-0.551 0.224,-0.141 0.504,-0.211 0.84,-0.211 0.336,0 0.621,0.07 0.857,0.211 z m 1.303,-2.791 c -0.465,-0.504 -1.192,-0.756 -2.183,-0.756 -0.289,0 -0.582,0.032 -0.883,0.096 -0.3,0.064 -0.572,0.168 -0.817,0.312 -0.244,0.145 -0.445,0.332 -0.605,0.565 -0.16,0.232 -0.248,0.515 -0.264,0.851 l 1.02,0 c 0.008,-0.183 0.066,-0.34 0.174,-0.468 0.108,-0.128 0.24,-0.231 0.396,-0.311 0.156,-0.08 0.326,-0.139 0.51,-0.175 0.183,-0.036 0.359,-0.054 0.527,-0.054 0.337,0 0.621,0.059 0.853,0.174 0.231,0.116 0.425,0.276 0.576,0.481 0.151,0.203 0.262,0.449 0.33,0.738 0.067,0.287 0.103,0.603 0.103,0.947 l 0,0.408 -0.025,0 c -0.177,-0.384 -0.442,-0.666 -0.798,-0.845 -0.356,-0.181 -0.734,-0.271 -1.134,-0.271 -0.464,0 -0.868,0.084 -1.211,0.252 -0.345,0.168 -0.633,0.394 -0.866,0.679 -0.231,0.283 -0.406,0.615 -0.521,0.996 -0.116,0.379 -0.174,0.781 -0.174,1.205 0,0.368 0.048,0.746 0.145,1.135 0.095,0.386 0.255,0.739 0.479,1.056 0.224,0.315 0.521,0.575 0.888,0.78 0.368,0.203 0.82,0.305 1.355,0.305 0.393,0 0.752,-0.087 1.08,-0.258 0.328,-0.172 0.584,-0.43 0.769,-0.774 l 0.013,0 0,0.889 0.959,0 0,-5.677 c 0,-1.015 -0.233,-1.776 -0.696,-2.28"
           id="path3116"
           style="fill:#176fc1;fill-opacity:1;fill-rule:nonzero;stroke:none" /><path
           d="m 362.134,344.463 c -0.092,0.216 -0.215,0.402 -0.371,0.557 -0.156,0.157 -0.341,0.28 -0.553,0.372 -0.212,0.092 -0.445,0.139 -0.701,0.139 -0.264,0 -0.503,-0.047 -0.715,-0.139 -0.212,-0.092 -0.394,-0.218 -0.546,-0.378 -0.151,-0.16 -0.272,-0.346 -0.36,-0.557 -0.088,-0.213 -0.14,-0.439 -0.155,-0.679 l 3.563,0 c -0.015,0.24 -0.07,0.468 -0.162,0.685 z m 0.246,-3.985 c -0.463,-0.351 -1.048,-0.527 -1.752,-0.527 -0.496,0 -0.925,0.08 -1.289,0.239 -0.365,0.16 -0.671,0.384 -0.918,0.672 -0.248,0.288 -0.434,0.632 -0.558,1.032 -0.124,0.401 -0.195,0.836 -0.21,1.309 0,0.471 0.071,0.903 0.216,1.295 0.144,0.392 0.345,0.732 0.605,1.02 0.26,0.288 0.568,0.512 0.925,0.672 0.355,0.16 0.745,0.24 1.17,0.24 0.552,0 1.01,-0.114 1.374,-0.342 0.363,-0.228 0.656,-0.518 0.876,-0.87 0.219,-0.352 0.372,-0.736 0.456,-1.152 0.084,-0.416 0.117,-0.812 0.101,-1.187 l -4.643,0 c -0.009,-0.273 0.024,-0.531 0.096,-0.775 0.072,-0.244 0.188,-0.46 0.348,-0.647 0.159,-0.189 0.363,-0.338 0.611,-0.451 0.249,-0.112 0.541,-0.168 0.876,-0.168 0.433,0 0.787,0.1 1.062,0.3 0.277,0.2 0.459,0.504 0.547,0.912 l 1.008,0 c -0.137,-0.696 -0.436,-1.22 -0.901,-1.572"
           id="path3118"
           style="fill:#176fc1;fill-opacity:1;fill-rule:nonzero;stroke:none" /><path
           d="m 365.357,346.287 0,-1.309 0.023,0 c 0.248,0.504 0.553,0.876 0.912,1.117 0.36,0.239 0.817,0.351 1.369,0.335 l 0,-1.08 c -0.409,0 -0.756,-0.055 -1.044,-0.168 -0.288,-0.112 -0.521,-0.276 -0.697,-0.492 -0.175,-0.216 -0.303,-0.477 -0.383,-0.786 -0.081,-0.308 -0.12,-0.662 -0.12,-1.062 l 0,-2.76 -1.021,0 0,6.205 0.961,0"
           id="path3120"
           style="fill:#176fc1;fill-opacity:1;fill-rule:nonzero;stroke:none" /><path
           d="m 318.257,330.986 0,0.9 1.044,0 0,0.924 c 0,0.504 0.146,0.887 0.439,1.147 0.291,0.26 0.716,0.389 1.277,0.389 0.096,0 0.206,-0.008 0.33,-0.024 0.124,-0.016 0.234,-0.039 0.33,-0.072 l 0,-0.887 c -0.088,0.031 -0.183,0.053 -0.288,0.066 -0.104,0.011 -0.2,0.018 -0.288,0.018 -0.248,0 -0.439,-0.049 -0.576,-0.145 -0.136,-0.095 -0.203,-0.28 -0.203,-0.552 l 0,-0.864 1.199,0 0,-0.9 -1.199,0 0,-5.304 -1.021,0 0,5.304 -1.044,0"
           id="path3122"
           style="fill:#176fc1;fill-opacity:1;fill-rule:nonzero;stroke:none" /><path
           d="m 323.328,327.777 c 0.099,-0.293 0.237,-0.537 0.414,-0.732 0.175,-0.197 0.38,-0.346 0.617,-0.45 0.236,-0.105 0.486,-0.157 0.75,-0.157 0.263,0 0.513,0.052 0.75,0.157 0.236,0.104 0.441,0.253 0.618,0.45 0.176,0.195 0.313,0.439 0.414,0.732 0.101,0.291 0.149,0.625 0.149,1.002 0,0.375 -0.048,0.709 -0.149,1.002 -0.101,0.291 -0.238,0.537 -0.414,0.737 -0.177,0.2 -0.382,0.353 -0.618,0.456 -0.237,0.104 -0.487,0.157 -0.75,0.157 -0.264,0 -0.514,-0.053 -0.75,-0.157 -0.237,-0.103 -0.442,-0.256 -0.617,-0.456 -0.177,-0.2 -0.315,-0.446 -0.414,-0.737 -0.101,-0.293 -0.151,-0.627 -0.151,-1.002 0,-0.377 0.05,-0.711 0.151,-1.002 z m -1.04,2.279 c 0.129,0.397 0.321,0.741 0.577,1.032 0.256,0.293 0.572,0.523 0.948,0.691 0.376,0.168 0.808,0.252 1.296,0.252 0.496,0 0.929,-0.084 1.303,-0.252 0.371,-0.168 0.685,-0.398 0.941,-0.691 0.256,-0.291 0.447,-0.635 0.576,-1.032 0.128,-0.396 0.192,-0.822 0.192,-1.277 0,-0.457 -0.064,-0.881 -0.192,-1.272 -0.129,-0.392 -0.32,-0.735 -0.576,-1.027 -0.256,-0.292 -0.57,-0.519 -0.941,-0.683 -0.374,-0.164 -0.807,-0.247 -1.303,-0.247 -0.488,0 -0.92,0.083 -1.296,0.247 -0.376,0.164 -0.692,0.391 -0.948,0.683 -0.256,0.292 -0.448,0.635 -0.577,1.027 -0.126,0.391 -0.191,0.815 -0.191,1.272 0,0.455 0.065,0.881 0.191,1.277"
           id="path3124"
           style="fill:#176fc1;fill-opacity:1;fill-rule:nonzero;stroke:none" /><path
           d="m 330.246,331.886 0,-1.308 0.023,0 c 0.248,0.504 0.553,0.877 0.912,1.117 0.359,0.239 0.816,0.352 1.368,0.336 l 0,-1.08 c -0.408,0 -0.756,-0.057 -1.044,-0.168 -0.288,-0.113 -0.52,-0.276 -0.696,-0.492 -0.176,-0.217 -0.304,-0.479 -0.384,-0.787 -0.08,-0.307 -0.12,-0.661 -0.12,-1.062 l 0,-2.76 -1.02,0 0,6.204 0.961,0"
           id="path3126"
           style="fill:#176fc1;fill-opacity:1;fill-rule:nonzero;stroke:none" /><path
           d="m 339.136,325.682 0,6.097 -2.207,0 0,0.816 c 0.287,0 0.567,0.022 0.84,0.065 0.271,0.045 0.518,0.127 0.738,0.246 0.219,0.121 0.405,0.284 0.558,0.492 0.151,0.208 0.256,0.473 0.311,0.792 l 0.781,0 0,-8.508 -1.021,0"
           id="path3128"
           style="fill:#176fc1;fill-opacity:1;fill-rule:nonzero;stroke:none" /><path
           d="m 343.217,332.379 c 0.112,0.367 0.286,0.685 0.523,0.953 0.235,0.268 0.529,0.478 0.881,0.631 0.352,0.151 0.751,0.227 1.201,0.227 0.367,0 0.713,-0.054 1.037,-0.161 0.324,-0.109 0.606,-0.265 0.845,-0.469 0.241,-0.204 0.431,-0.458 0.571,-0.761 0.14,-0.305 0.211,-0.657 0.211,-1.057 0,-0.375 -0.059,-0.707 -0.175,-0.996 -0.116,-0.287 -0.271,-0.545 -0.462,-0.774 -0.191,-0.228 -0.412,-0.433 -0.66,-0.618 -0.248,-0.184 -0.504,-0.36 -0.768,-0.528 -0.263,-0.16 -0.528,-0.317 -0.793,-0.474 -0.263,-0.155 -0.506,-0.322 -0.724,-0.498 -0.221,-0.175 -0.408,-0.366 -0.565,-0.569 -0.156,-0.205 -0.258,-0.439 -0.306,-0.703 l 4.369,0 0,-0.9 -5.557,0 c 0.04,0.504 0.13,0.935 0.27,1.29 0.14,0.356 0.318,0.666 0.534,0.93 0.216,0.264 0.46,0.496 0.732,0.696 0.272,0.201 0.556,0.388 0.852,0.564 0.36,0.224 0.677,0.431 0.948,0.619 0.272,0.187 0.498,0.377 0.678,0.569 0.179,0.193 0.316,0.4 0.408,0.624 0.092,0.225 0.139,0.485 0.139,0.78 0,0.232 -0.045,0.443 -0.133,0.63 -0.088,0.188 -0.206,0.35 -0.354,0.487 -0.148,0.135 -0.322,0.24 -0.522,0.311 -0.2,0.072 -0.412,0.109 -0.636,0.109 -0.297,0 -0.551,-0.063 -0.762,-0.187 -0.212,-0.124 -0.386,-0.286 -0.522,-0.485 -0.136,-0.201 -0.233,-0.427 -0.294,-0.679 -0.061,-0.252 -0.086,-0.506 -0.078,-0.761 l -1.02,0 c -0.024,0.432 0.02,0.832 0.132,1.2"
           id="path3130"
           style="fill:#176fc1;fill-opacity:1;fill-rule:nonzero;stroke:none" /><path
           d="m 350.843,328.797 c 0.02,-0.397 0.084,-0.768 0.192,-1.117 0.108,-0.348 0.282,-0.641 0.522,-0.881 0.239,-0.241 0.575,-0.361 1.008,-0.361 0.432,0 0.768,0.12 1.009,0.361 0.239,0.24 0.413,0.533 0.521,0.881 0.108,0.349 0.172,0.72 0.192,1.117 0.019,0.395 0.03,0.753 0.03,1.074 0,0.207 -0.002,0.437 -0.006,0.689 -0.005,0.252 -0.024,0.504 -0.06,0.756 -0.037,0.252 -0.088,0.498 -0.156,0.738 -0.068,0.241 -0.168,0.45 -0.301,0.63 -0.131,0.181 -0.297,0.325 -0.498,0.439 -0.199,0.111 -0.443,0.168 -0.731,0.168 -0.288,0 -0.532,-0.057 -0.732,-0.168 -0.201,-0.114 -0.367,-0.258 -0.498,-0.439 -0.132,-0.18 -0.232,-0.389 -0.3,-0.63 -0.069,-0.24 -0.12,-0.486 -0.157,-0.738 -0.035,-0.252 -0.055,-0.504 -0.059,-0.756 -0.004,-0.252 -0.006,-0.482 -0.006,-0.689 0,-0.321 0.01,-0.679 0.03,-1.074 z m -1.086,2.033 c 0.016,0.336 0.056,0.664 0.119,0.984 0.065,0.32 0.157,0.624 0.277,0.912 0.12,0.288 0.284,0.54 0.492,0.756 0.208,0.217 0.47,0.389 0.786,0.516 0.316,0.129 0.693,0.192 1.134,0.192 0.44,0 0.817,-0.063 1.134,-0.192 0.316,-0.127 0.578,-0.299 0.786,-0.516 0.208,-0.216 0.372,-0.468 0.492,-0.756 0.12,-0.288 0.212,-0.592 0.276,-0.912 0.064,-0.32 0.104,-0.648 0.119,-0.984 0.017,-0.336 0.025,-0.66 0.025,-0.972 0,-0.311 -0.008,-0.636 -0.025,-0.972 -0.015,-0.336 -0.055,-0.664 -0.119,-0.984 -0.064,-0.32 -0.156,-0.622 -0.276,-0.906 -0.12,-0.283 -0.284,-0.533 -0.492,-0.75 -0.208,-0.215 -0.468,-0.386 -0.781,-0.51 -0.311,-0.123 -0.691,-0.186 -1.139,-0.186 -0.441,0 -0.818,0.063 -1.134,0.186 -0.316,0.124 -0.578,0.295 -0.786,0.51 -0.208,0.217 -0.372,0.467 -0.492,0.75 -0.12,0.284 -0.212,0.586 -0.277,0.906 -0.063,0.32 -0.103,0.648 -0.119,0.984 -0.016,0.336 -0.024,0.661 -0.024,0.972 0,0.312 0.008,0.636 0.024,0.972"
           id="path3132"
           style="fill:#176fc1;fill-opacity:1;fill-rule:nonzero;stroke:none" /><path
           d="m 361.391,329.684 c -0.076,0.277 -0.192,0.523 -0.349,0.739 -0.156,0.215 -0.355,0.387 -0.599,0.515 -0.244,0.128 -0.531,0.193 -0.858,0.193 -0.344,0 -0.636,-0.069 -0.877,-0.204 -0.24,-0.136 -0.435,-0.314 -0.587,-0.535 -0.153,-0.22 -0.262,-0.47 -0.331,-0.75 -0.068,-0.28 -0.101,-0.564 -0.101,-0.851 0,-0.305 0.036,-0.599 0.107,-0.883 0.073,-0.283 0.187,-0.533 0.342,-0.75 0.156,-0.216 0.358,-0.39 0.608,-0.522 0.247,-0.132 0.546,-0.198 0.899,-0.198 0.351,0 0.645,0.068 0.882,0.204 0.236,0.136 0.426,0.317 0.57,0.54 0.144,0.224 0.248,0.48 0.312,0.769 0.063,0.287 0.096,0.584 0.096,0.887 0,0.289 -0.039,0.57 -0.114,0.846 z m -3.666,2.202 0,-0.839 0.024,0 c 0.168,0.343 0.432,0.593 0.791,0.75 0.361,0.156 0.756,0.234 1.189,0.234 0.479,0 0.897,-0.089 1.254,-0.265 0.356,-0.176 0.651,-0.414 0.888,-0.714 0.236,-0.3 0.414,-0.646 0.534,-1.038 0.12,-0.391 0.18,-0.807 0.18,-1.248 0,-0.44 -0.058,-0.856 -0.174,-1.248 -0.117,-0.391 -0.292,-0.733 -0.529,-1.026 -0.235,-0.291 -0.531,-0.522 -0.886,-0.69 -0.358,-0.168 -0.772,-0.252 -1.243,-0.252 -0.152,0 -0.322,0.016 -0.51,0.048 -0.189,0.033 -0.374,0.084 -0.558,0.156 -0.184,0.072 -0.358,0.17 -0.522,0.295 -0.164,0.123 -0.302,0.277 -0.414,0.462 l -0.024,0 0,-3.193 -1.021,0 0,8.568 1.021,0"
           id="path3134"
           style="fill:#176fc1;fill-opacity:1;fill-rule:nonzero;stroke:none" /><path
           d="m 363.292,331.886 1.309,0 1.487,-2.171 1.548,2.171 1.225,0 -2.137,-2.855 2.4,-3.349 -1.308,0 -1.728,2.568 -1.727,-2.568 -1.237,0 2.329,3.265 -2.161,2.939"
           id="path3136"
           style="fill:#176fc1;fill-opacity:1;fill-rule:nonzero;stroke:none" /><path
           d="m 379.193,329.127 0,-0.817 -2.616,0 0,-2.628 -0.816,0 0,2.628 -2.616,0 0,0.817 2.616,0 0,2.627 0.816,0 0,-2.627 2.616,0"
           id="path3138"
           style="fill:#176fc1;fill-opacity:1;fill-rule:nonzero;stroke:none" /><path
           d="m 152.608,168.545 c -8.994,0 -16.288,-7.293 -16.288,-16.29 0,-7.197 4.667,-13.302 11.14,-15.456 0.815,-0.15 1.112,0.353 1.112,0.785 0,0.387 -0.014,1.411 -0.022,2.77 -4.531,-0.984 -5.487,2.184 -5.487,2.184 -0.741,1.882 -1.809,2.383 -1.809,2.383 -1.479,1.01 0.112,0.99 0.112,0.99 1.635,-0.115 2.495,-1.679 2.495,-1.679 1.453,-2.489 3.813,-1.77 4.741,-1.353 0.148,1.052 0.569,1.77 1.034,2.177 -3.617,0.411 -7.42,1.809 -7.42,8.051 0,1.778 0.635,3.233 1.677,4.371 -0.168,0.412 -0.727,2.069 0.16,4.311 0,0 1.367,0.438 4.479,-1.67 1.299,0.362 2.693,0.542 4.078,0.549 1.384,-0.007 2.777,-0.187 4.078,-0.549 3.11,2.108 4.475,1.67 4.475,1.67 0.889,-2.242 0.33,-3.899 0.163,-4.311 1.044,-1.138 1.674,-2.593 1.674,-4.371 0,-6.258 -3.809,-7.635 -7.437,-8.038 0.584,-0.503 1.105,-1.497 1.105,-3.016 0,-2.178 -0.02,-3.935 -0.02,-4.469 0,-0.436 0.294,-0.943 1.12,-0.784 6.468,2.159 11.131,8.26 11.131,15.455 0,8.997 -7.294,16.29 -16.291,16.29"
           id="path3140"
           style="fill:#ffffff;fill-opacity:1;fill-rule:evenodd;stroke:none" /><path
           d="m 350.609,217.554 c -33.347,0 -60.388,-27.035 -60.388,-60.387 0,-26.681 17.303,-49.317 41.297,-57.302 3.018,-0.559 4.126,1.31 4.126,2.905 0,1.44 -0.056,6.197 -0.082,11.243 -16.8,-3.653 -20.345,7.125 -20.345,7.125 -2.747,6.98 -6.705,8.836 -6.705,8.836 -5.479,3.748 0.413,3.671 0.413,3.671 6.064,-0.425 9.257,-6.223 9.257,-6.223 5.386,-9.232 14.127,-6.563 17.573,-5.02 0.542,3.902 2.107,6.568 3.834,8.075 -13.413,1.527 -27.513,6.705 -27.513,29.844 0,6.593 2.359,11.98 6.222,16.209 -0.627,1.522 -2.694,7.663 0.585,15.981 0,0 5.071,1.623 16.611,-6.19 4.817,1.338 9.983,2.009 15.115,2.032 5.132,-0.023 10.302,-0.694 15.128,-2.032 11.526,7.813 16.59,6.19 16.59,6.19 3.287,-8.318 1.219,-14.459 0.592,-15.981 3.872,-4.229 6.215,-9.616 6.215,-16.209 0,-23.194 -14.127,-28.301 -27.574,-29.796 2.166,-1.874 4.096,-5.549 4.096,-11.183 0,-8.079 -0.07,-14.582 -0.07,-16.572 0,-1.607 1.087,-3.49 4.148,-2.897 23.981,7.994 41.262,30.622 41.262,57.294 0,33.352 -27.037,60.387 -60.387,60.387"
           id="path3142"
           style="fill:#ffffff;fill-opacity:1;fill-rule:evenodd;stroke:none" /><path
           d="m 313.093,130.851 c -0.133,-0.301 -0.605,-0.39 -1.035,-0.184 -0.438,0.197 -0.684,0.606 -0.542,0.907 0.13,0.309 0.603,0.394 1.04,0.189 0.439,-0.198 0.689,-0.611 0.537,-0.912"
           id="path3144"
           style="fill:#ffffff;fill-opacity:1;fill-rule:nonzero;stroke:none" /><path
           d="m 315.539,128.123 c -0.288,-0.267 -0.851,-0.143 -1.233,0.279 -0.395,0.421 -0.469,0.984 -0.177,1.255 0.297,0.267 0.843,0.142 1.239,-0.279 0.395,-0.426 0.472,-0.985 0.171,-1.255"
           id="path3146"
           style="fill:#ffffff;fill-opacity:1;fill-rule:nonzero;stroke:none" /><path
           d="m 317.92,124.645 c -0.37,-0.257 -0.975,-0.016 -1.349,0.521 -0.37,0.537 -0.37,1.181 0.008,1.439 0.375,0.258 0.971,0.026 1.35,-0.507 0.369,-0.545 0.369,-1.19 -0.009,-1.453"
           id="path3148"
           style="fill:#ffffff;fill-opacity:1;fill-rule:nonzero;stroke:none" /><path
           d="m 321.182,121.285 c -0.331,-0.365 -1.036,-0.267 -1.552,0.231 -0.528,0.487 -0.675,1.178 -0.343,1.543 0.335,0.366 1.044,0.263 1.564,-0.231 0.524,-0.486 0.684,-1.182 0.331,-1.543"
           id="path3150"
           style="fill:#ffffff;fill-opacity:1;fill-rule:nonzero;stroke:none" /><path
           d="m 325.682,119.334 c -0.146,-0.473 -0.825,-0.688 -1.509,-0.487 -0.683,0.207 -1.13,0.761 -0.992,1.239 0.142,0.476 0.824,0.7 1.513,0.485 0.682,-0.206 1.13,-0.756 0.988,-1.237"
           id="path3152"
           style="fill:#ffffff;fill-opacity:1;fill-rule:nonzero;stroke:none" /><path
           d="m 330.624,118.972 c 0.017,-0.498 -0.563,-0.911 -1.281,-0.919 -0.722,-0.017 -1.306,0.386 -1.314,0.876 0,0.503 0.567,0.912 1.289,0.924 0.718,0.014 1.306,-0.386 1.306,-0.881"
           id="path3154"
           style="fill:#ffffff;fill-opacity:1;fill-rule:nonzero;stroke:none" /><path
           d="m 335.223,119.755 c 0.086,-0.486 -0.413,-0.985 -1.126,-1.117 -0.701,-0.129 -1.35,0.171 -1.439,0.653 -0.087,0.498 0.421,0.997 1.121,1.126 0.714,0.124 1.353,-0.168 1.444,-0.662"
           id="path3156"
           style="fill:#ffffff;fill-opacity:1;fill-rule:nonzero;stroke:none" /><path
           d="m 224.898,223.488 0,-0.5"
           id="path3158"
           style="fill:none;stroke:#3a7fc3;stroke-width:1;stroke-linecap:round;stroke-linejoin:miter;stroke-miterlimit:10;stroke-opacity:1;stroke-dasharray:none" /><path
           d="m 224.898,220.988 0,-133.993"
           id="path3160"
           style="fill:none;stroke:#3a7fc3;stroke-width:1;stroke-linecap:round;stroke-linejoin:miter;stroke-miterlimit:10;stroke-opacity:1;stroke-dasharray:1, 2;stroke-dashoffset:0" /><path
           d="m 224.898,85.995 0,-0.5"
           id="path3162"
           style="fill:none;stroke:#3a7fc3;stroke-width:1;stroke-linecap:round;stroke-linejoin:miter;stroke-miterlimit:10;stroke-opacity:1;stroke-dasharray:none" /><path
           d="m 133.276,71.479 c -0.381,0.277 -0.866,0.414 -1.458,0.414 -0.24,0 -0.476,-0.024 -0.708,-0.071 -0.233,-0.049 -0.438,-0.129 -0.618,-0.24 -0.18,-0.114 -0.324,-0.263 -0.433,-0.451 -0.107,-0.188 -0.161,-0.422 -0.161,-0.702 0,-0.263 0.077,-0.478 0.234,-0.642 0.155,-0.164 0.364,-0.298 0.624,-0.402 0.26,-0.104 0.553,-0.19 0.882,-0.258 0.328,-0.068 0.662,-0.142 1.002,-0.221 0.34,-0.08 0.673,-0.175 1.002,-0.283 0.328,-0.108 0.622,-0.254 0.882,-0.438 0.26,-0.183 0.468,-0.416 0.624,-0.695 0.156,-0.281 0.234,-0.633 0.234,-1.057 0,-0.456 -0.102,-0.845 -0.306,-1.17 -0.205,-0.324 -0.466,-0.588 -0.786,-0.792 -0.32,-0.204 -0.678,-0.352 -1.074,-0.444 -0.396,-0.092 -0.79,-0.138 -1.182,-0.138 -0.48,0 -0.934,0.06 -1.362,0.18 -0.428,0.12 -0.804,0.302 -1.128,0.546 -0.324,0.244 -0.58,0.557 -0.768,0.937 -0.188,0.379 -0.282,0.829 -0.282,1.349 l 1.08,0 c 0,-0.36 0.069,-0.67 0.21,-0.93 0.14,-0.26 0.324,-0.473 0.552,-0.641 0.228,-0.168 0.493,-0.293 0.798,-0.373 0.304,-0.08 0.615,-0.119 0.936,-0.119 0.256,0 0.514,0.023 0.774,0.072 0.26,0.047 0.494,0.129 0.702,0.246 0.208,0.115 0.376,0.273 0.504,0.473 0.128,0.201 0.192,0.457 0.192,0.768 0,0.296 -0.079,0.536 -0.234,0.72 -0.156,0.183 -0.365,0.334 -0.624,0.45 -0.261,0.116 -0.555,0.21 -0.882,0.282 -0.328,0.073 -0.662,0.147 -1.002,0.223 -0.34,0.075 -0.674,0.163 -1.002,0.264 -0.328,0.099 -0.623,0.231 -0.882,0.395 -0.26,0.164 -0.468,0.376 -0.624,0.636 -0.156,0.26 -0.234,0.586 -0.234,0.979 0,0.431 0.088,0.805 0.264,1.121 0.176,0.316 0.41,0.576 0.702,0.781 0.292,0.203 0.624,0.355 0.996,0.455 0.372,0.1 0.754,0.15 1.146,0.15 0.44,0 0.848,-0.053 1.224,-0.156 0.376,-0.104 0.706,-0.268 0.989,-0.492 0.285,-0.224 0.509,-0.506 0.673,-0.846 0.163,-0.34 0.254,-0.746 0.27,-1.218 l -1.08,0 c -0.065,0.617 -0.286,1.062 -0.666,1.338"
           id="path3164"
           style="fill:#176fc1;fill-opacity:1;fill-rule:nonzero;stroke:none" /><path
           d="m 137.554,70.285 0,-0.912 0.024,0 c 0.463,0.705 1.131,1.056 2.003,1.056 0.385,0 0.732,-0.08 1.044,-0.24 0.313,-0.16 0.533,-0.431 0.661,-0.816 0.208,0.336 0.482,0.595 0.822,0.78 0.34,0.185 0.714,0.276 1.121,0.276 0.312,0 0.595,-0.034 0.847,-0.101 0.252,-0.068 0.467,-0.175 0.648,-0.318 0.18,-0.145 0.319,-0.331 0.419,-0.559 0.101,-0.228 0.15,-0.502 0.15,-0.822 l 0,-4.547 -1.019,0 0,4.067 c 0,0.193 -0.017,0.372 -0.049,0.54 -0.031,0.168 -0.091,0.315 -0.179,0.438 -0.089,0.125 -0.211,0.222 -0.366,0.295 -0.156,0.072 -0.358,0.107 -0.606,0.107 -0.504,0 -0.9,-0.144 -1.188,-0.432 -0.288,-0.288 -0.432,-0.672 -0.432,-1.152 l 0,-3.863 -1.021,0 0,4.067 c 0,0.2 -0.018,0.384 -0.053,0.552 -0.036,0.168 -0.098,0.314 -0.186,0.438 -0.089,0.124 -0.206,0.22 -0.354,0.289 -0.149,0.068 -0.339,0.101 -0.57,0.101 -0.296,0 -0.55,-0.059 -0.762,-0.18 -0.213,-0.12 -0.385,-0.263 -0.516,-0.431 -0.132,-0.168 -0.228,-0.342 -0.288,-0.523 -0.061,-0.18 -0.09,-0.33 -0.09,-0.45 l 0,-3.863 -1.02,0 0,6.203 0.96,0"
           id="path3166"
           style="fill:#176fc1;fill-opacity:1;fill-rule:nonzero;stroke:none" /><path
           d="m 150.165,67.076 c -0.208,-0.045 -0.425,-0.08 -0.653,-0.109 -0.228,-0.028 -0.459,-0.059 -0.691,-0.096 -0.232,-0.035 -0.44,-0.094 -0.623,-0.174 -0.185,-0.08 -0.335,-0.193 -0.451,-0.342 -0.116,-0.148 -0.173,-0.349 -0.173,-0.605 0,-0.168 0.033,-0.311 0.101,-0.426 0.068,-0.117 0.156,-0.211 0.264,-0.283 0.108,-0.071 0.236,-0.123 0.385,-0.156 0.148,-0.032 0.297,-0.047 0.449,-0.047 0.336,0 0.624,0.045 0.865,0.137 0.239,0.092 0.435,0.208 0.587,0.349 0.152,0.139 0.265,0.291 0.336,0.455 0.072,0.164 0.108,0.318 0.108,0.463 l 0,1.043 c -0.128,-0.096 -0.296,-0.166 -0.504,-0.209 z m 1.429,-3.127 c -0.265,0 -0.474,0.074 -0.631,0.223 -0.155,0.147 -0.234,0.389 -0.234,0.725 -0.28,-0.336 -0.606,-0.578 -0.978,-0.725 -0.372,-0.149 -0.774,-0.223 -1.206,-0.223 -0.279,0 -0.544,0.03 -0.792,0.09 -0.248,0.06 -0.466,0.16 -0.653,0.301 -0.188,0.139 -0.336,0.319 -0.444,0.539 -0.109,0.22 -0.162,0.486 -0.162,0.799 0,0.351 0.06,0.639 0.179,0.863 0.12,0.224 0.278,0.406 0.474,0.547 0.196,0.139 0.42,0.246 0.672,0.318 0.252,0.071 0.51,0.131 0.775,0.18 0.279,0.055 0.546,0.097 0.798,0.125 0.251,0.028 0.474,0.068 0.666,0.121 0.191,0.051 0.343,0.127 0.456,0.227 0.111,0.101 0.168,0.246 0.168,0.439 0,0.223 -0.042,0.403 -0.126,0.539 -0.084,0.137 -0.193,0.24 -0.325,0.312 -0.131,0.073 -0.28,0.121 -0.444,0.145 -0.164,0.023 -0.326,0.035 -0.485,0.035 -0.432,0 -0.792,-0.082 -1.08,-0.246 -0.289,-0.164 -0.445,-0.474 -0.469,-0.93 l -1.02,0 c 0.016,0.384 0.096,0.708 0.241,0.973 0.144,0.264 0.335,0.477 0.575,0.641 0.24,0.164 0.516,0.283 0.828,0.355 0.312,0.071 0.64,0.107 0.984,0.107 0.281,0 0.558,-0.019 0.834,-0.06 0.277,-0.039 0.527,-0.121 0.75,-0.246 0.224,-0.123 0.405,-0.298 0.54,-0.522 0.136,-0.224 0.204,-0.515 0.204,-0.876 l 0,-3.192 c 0,-0.24 0.015,-0.416 0.042,-0.527 0.028,-0.113 0.123,-0.168 0.283,-0.168 0.088,0 0.191,0.019 0.312,0.059 l 0,-0.792 c -0.177,-0.103 -0.42,-0.156 -0.732,-0.156"
           id="path3168"
           style="fill:#176fc1;fill-opacity:1;fill-rule:nonzero;stroke:none" /><path
           d="m 153.333,64.082 1.021,0 0,8.567 -1.021,0 0,-8.567 z"
           id="path3170"
           style="fill:#176fc1;fill-opacity:1;fill-rule:nonzero;stroke:none" /><path
           d="m 155.997,64.082 1.02,0 0,8.567 -1.02,0 0,-8.567 z"
           id="path3172"
           style="fill:#176fc1;fill-opacity:1;fill-rule:nonzero;stroke:none" /><path
           d="m 101.854,54.986 0,0.899 1.044,0 0,0.924 c 0,0.504 0.146,0.886 0.438,1.146 0.292,0.26 0.718,0.391 1.278,0.391 0.096,0 0.206,-0.008 0.33,-0.024 0.124,-0.017 0.234,-0.041 0.33,-0.072 l 0,-0.889 c -0.088,0.032 -0.184,0.055 -0.288,0.067 -0.104,0.011 -0.2,0.017 -0.288,0.017 -0.248,0 -0.44,-0.048 -0.576,-0.143 -0.136,-0.097 -0.204,-0.281 -0.204,-0.552 l 0,-0.865 1.2,0 0,-0.899 -1.2,0 0,-5.305 -1.02,0 0,5.305 -1.044,0"
           id="path3174"
           style="fill:#176fc1;fill-opacity:1;fill-rule:nonzero;stroke:none" /><path
           d="m 106.924,51.775 c 0.099,-0.292 0.238,-0.535 0.414,-0.732 0.176,-0.196 0.382,-0.346 0.617,-0.45 0.236,-0.103 0.487,-0.156 0.75,-0.156 0.265,0 0.515,0.053 0.75,0.156 0.236,0.104 0.442,0.254 0.619,0.45 0.175,0.197 0.314,0.44 0.414,0.732 0.1,0.292 0.15,0.626 0.15,1.002 0,0.377 -0.05,0.71 -0.15,1.002 -0.1,0.293 -0.239,0.538 -0.414,0.738 -0.177,0.2 -0.383,0.352 -0.619,0.456 -0.235,0.105 -0.485,0.157 -0.75,0.157 -0.263,0 -0.514,-0.052 -0.75,-0.157 -0.235,-0.104 -0.441,-0.256 -0.617,-0.456 -0.176,-0.2 -0.315,-0.445 -0.414,-0.738 -0.1,-0.292 -0.15,-0.625 -0.15,-1.002 0,-0.376 0.05,-0.71 0.15,-1.002 z m -1.038,2.28 c 0.128,0.396 0.319,0.74 0.576,1.033 0.256,0.291 0.572,0.521 0.948,0.689 0.376,0.168 0.808,0.252 1.295,0.252 0.497,0 0.931,-0.084 1.303,-0.252 0.372,-0.168 0.685,-0.398 0.942,-0.689 0.255,-0.293 0.447,-0.637 0.576,-1.033 0.128,-0.395 0.192,-0.822 0.192,-1.278 0,-0.455 -0.064,-0.88 -0.192,-1.271 -0.129,-0.393 -0.321,-0.735 -0.576,-1.027 -0.257,-0.292 -0.57,-0.52 -0.942,-0.684 -0.372,-0.163 -0.806,-0.245 -1.303,-0.245 -0.487,0 -0.919,0.082 -1.295,0.245 -0.376,0.164 -0.692,0.392 -0.948,0.684 -0.257,0.292 -0.448,0.634 -0.576,1.027 -0.128,0.391 -0.192,0.816 -0.192,1.271 0,0.456 0.064,0.883 0.192,1.278"
           id="path3176"
           style="fill:#176fc1;fill-opacity:1;fill-rule:nonzero;stroke:none" /><path
           d="m 113.842,55.885 0,-1.307 0.024,0 c 0.248,0.504 0.552,0.875 0.912,1.115 0.36,0.24 0.816,0.352 1.368,0.336 l 0,-1.08 c -0.408,0 -0.756,-0.056 -1.044,-0.168 -0.288,-0.111 -0.521,-0.275 -0.696,-0.492 -0.176,-0.215 -0.305,-0.478 -0.384,-0.785 -0.08,-0.309 -0.12,-0.662 -0.12,-1.063 l 0,-2.76 -1.02,0 0,6.204 0.96,0"
           id="path3178"
           style="fill:#176fc1;fill-opacity:1;fill-rule:nonzero;stroke:none" /><path
           d="m 122.733,49.681 0,6.096 -2.208,0 0,0.816 c 0.288,0 0.568,0.022 0.84,0.067 0.272,0.043 0.518,0.125 0.738,0.246 0.22,0.119 0.406,0.283 0.559,0.491 0.151,0.208 0.255,0.472 0.312,0.792 l 0.779,0 0,-8.508 -1.02,0"
           id="path3180"
           style="fill:#176fc1;fill-opacity:1;fill-rule:nonzero;stroke:none" /><path
           d="m 128.829,54.103 c -0.215,-0.099 -0.399,-0.236 -0.551,-0.408 -0.152,-0.172 -0.266,-0.376 -0.342,-0.611 -0.076,-0.237 -0.114,-0.487 -0.114,-0.75 0,-0.264 0.04,-0.512 0.12,-0.744 0.079,-0.233 0.194,-0.432 0.342,-0.6 0.148,-0.168 0.332,-0.303 0.552,-0.402 0.22,-0.101 0.47,-0.151 0.75,-0.151 0.28,0 0.526,0.05 0.738,0.151 0.212,0.099 0.39,0.238 0.534,0.414 0.144,0.176 0.254,0.378 0.33,0.605 0.076,0.229 0.114,0.467 0.114,0.715 0,0.264 -0.034,0.514 -0.102,0.75 -0.068,0.235 -0.174,0.439 -0.318,0.611 -0.144,0.172 -0.324,0.311 -0.54,0.414 -0.216,0.104 -0.468,0.157 -0.756,0.157 -0.288,0 -0.54,-0.051 -0.757,-0.151 z m 1.849,2.838 c -0.248,0.233 -0.576,0.348 -0.984,0.348 -0.432,0 -0.781,-0.106 -1.044,-0.318 -0.264,-0.211 -0.47,-0.479 -0.618,-0.803 -0.148,-0.325 -0.25,-0.674 -0.307,-1.051 -0.055,-0.375 -0.087,-0.728 -0.095,-1.056 l 0.024,-0.024 c 0.24,0.392 0.538,0.676 0.894,0.852 0.356,0.176 0.766,0.265 1.23,0.265 0.408,0 0.774,-0.07 1.098,-0.211 0.324,-0.14 0.596,-0.334 0.816,-0.582 0.22,-0.248 0.39,-0.539 0.51,-0.875 0.12,-0.337 0.18,-0.701 0.18,-1.093 0,-0.311 -0.048,-0.635 -0.144,-0.971 -0.096,-0.336 -0.254,-0.643 -0.474,-0.918 -0.221,-0.277 -0.512,-0.504 -0.876,-0.684 -0.364,-0.181 -0.814,-0.27 -1.351,-0.27 -0.631,0 -1.139,0.128 -1.523,0.383 -0.384,0.256 -0.68,0.584 -0.888,0.985 -0.209,0.399 -0.346,0.84 -0.414,1.32 -0.069,0.479 -0.102,0.943 -0.102,1.392 0,0.583 0.05,1.149 0.15,1.698 0.1,0.547 0.27,1.033 0.51,1.457 0.24,0.424 0.559,0.764 0.96,1.02 0.4,0.256 0.904,0.384 1.512,0.384 0.704,0 1.264,-0.185 1.68,-0.557 0.416,-0.372 0.656,-0.911 0.72,-1.615 l -1.021,0 c -0.047,0.385 -0.195,0.692 -0.443,0.924"
           id="path3182"
           style="fill:#176fc1;fill-opacity:1;fill-rule:nonzero;stroke:none" /><path
           d="m 138.316,53.683 c -0.076,0.276 -0.193,0.522 -0.348,0.739 -0.157,0.216 -0.356,0.387 -0.6,0.515 -0.245,0.128 -0.531,0.193 -0.858,0.193 -0.345,0 -0.637,-0.069 -0.876,-0.205 -0.241,-0.136 -0.436,-0.314 -0.588,-0.534 -0.153,-0.219 -0.262,-0.469 -0.33,-0.75 -0.069,-0.28 -0.102,-0.563 -0.102,-0.852 0,-0.304 0.036,-0.598 0.108,-0.881 0.071,-0.285 0.186,-0.535 0.341,-0.75 0.157,-0.217 0.358,-0.391 0.607,-0.523 0.247,-0.131 0.548,-0.198 0.9,-0.198 0.351,0 0.646,0.069 0.882,0.204 0.236,0.136 0.425,0.316 0.569,0.54 0.144,0.224 0.249,0.481 0.312,0.768 0.064,0.289 0.097,0.584 0.097,0.889 0,0.287 -0.038,0.57 -0.114,0.845 z m -3.666,2.202 0,-0.84 0.024,0 c 0.168,0.344 0.431,0.594 0.792,0.75 0.36,0.156 0.756,0.234 1.188,0.234 0.48,0 0.898,-0.088 1.254,-0.264 0.356,-0.175 0.651,-0.414 0.888,-0.713 0.236,-0.3 0.413,-0.647 0.533,-1.039 0.121,-0.392 0.181,-0.808 0.181,-1.248 0,-0.439 -0.058,-0.855 -0.175,-1.248 -0.115,-0.392 -0.292,-0.734 -0.527,-1.025 -0.236,-0.293 -0.533,-0.522 -0.888,-0.69 -0.357,-0.168 -0.771,-0.252 -1.242,-0.252 -0.153,0 -0.323,0.016 -0.511,0.047 -0.188,0.033 -0.374,0.084 -0.557,0.157 -0.184,0.072 -0.359,0.17 -0.522,0.294 -0.164,0.124 -0.302,0.278 -0.414,0.462 l -0.024,0 0,-3.192 -1.02,0 0,8.567 1.02,0"
           id="path3184"
           style="fill:#176fc1;fill-opacity:1;fill-rule:nonzero;stroke:none" /><path
           d="m 140.217,55.885 1.308,0 1.488,-2.171 1.548,2.171 1.225,0 -2.137,-2.856 2.4,-3.348 -1.308,0 -1.728,2.569 -1.727,-2.569 -1.237,0 2.328,3.264 -2.16,2.94"
           id="path3186"
           style="fill:#176fc1;fill-opacity:1;fill-rule:nonzero;stroke:none" /><path
           d="m 146.757,52.537 3.468,0 0,0.961 -3.468,0 0,-0.961 z"
           id="path3188"
           style="fill:#176fc1;fill-opacity:1;fill-rule:nonzero;stroke:none" /><path
           d="m 154.077,49.681 0,6.096 -2.208,0 0,0.816 c 0.288,0 0.568,0.022 0.84,0.067 0.272,0.043 0.518,0.125 0.738,0.246 0.22,0.119 0.406,0.283 0.558,0.491 0.152,0.208 0.256,0.472 0.312,0.792 l 0.78,0 0,-8.508 -1.02,0"
           id="path3190"
           style="fill:#176fc1;fill-opacity:1;fill-rule:nonzero;stroke:none" /><path
           d="m 158.157,56.377 c 0.112,0.369 0.286,0.686 0.522,0.955 0.236,0.267 0.53,0.477 0.882,0.629 0.352,0.152 0.752,0.228 1.2,0.228 0.368,0 0.714,-0.054 1.038,-0.162 0.324,-0.107 0.606,-0.264 0.846,-0.468 0.24,-0.204 0.43,-0.458 0.57,-0.761 0.14,-0.304 0.21,-0.657 0.21,-1.056 0,-0.377 -0.058,-0.709 -0.174,-0.996 -0.116,-0.289 -0.27,-0.547 -0.462,-0.775 -0.192,-0.227 -0.412,-0.434 -0.66,-0.618 -0.248,-0.183 -0.504,-0.359 -0.768,-0.527 -0.264,-0.16 -0.528,-0.318 -0.792,-0.475 -0.264,-0.156 -0.506,-0.322 -0.726,-0.498 -0.22,-0.175 -0.408,-0.365 -0.564,-0.57 -0.156,-0.203 -0.258,-0.437 -0.306,-0.701 l 4.368,0 0,-0.901 -5.556,0 c 0.04,0.504 0.13,0.934 0.27,1.29 0.14,0.357 0.318,0.667 0.534,0.931 0.216,0.264 0.46,0.495 0.732,0.695 0.272,0.2 0.556,0.388 0.852,0.565 0.36,0.223 0.676,0.43 0.948,0.617 0.272,0.188 0.498,0.379 0.678,0.57 0.18,0.192 0.316,0.401 0.408,0.624 0.092,0.224 0.138,0.484 0.138,0.781 0,0.231 -0.044,0.441 -0.132,0.63 -0.088,0.187 -0.206,0.349 -0.354,0.485 -0.148,0.137 -0.322,0.24 -0.522,0.312 -0.2,0.073 -0.412,0.108 -0.636,0.108 -0.296,0 -0.55,-0.062 -0.762,-0.186 -0.212,-0.124 -0.386,-0.286 -0.522,-0.486 -0.136,-0.199 -0.234,-0.426 -0.294,-0.678 -0.06,-0.252 -0.086,-0.506 -0.078,-0.761 l -1.02,0 c -0.024,0.431 0.02,0.832 0.132,1.199"
           id="path3192"
           style="fill:#176fc1;fill-opacity:1;fill-rule:nonzero;stroke:none" /><path
           d="m 165.783,52.795 c 0.02,-0.396 0.085,-0.768 0.192,-1.116 0.108,-0.347 0.282,-0.642 0.522,-0.881 0.24,-0.241 0.576,-0.361 1.008,-0.361 0.433,0 0.768,0.12 1.009,0.361 0.239,0.239 0.413,0.534 0.522,0.881 0.107,0.348 0.171,0.72 0.191,1.116 0.02,0.396 0.03,0.755 0.03,1.074 0,0.209 -0.002,0.438 -0.006,0.69 -0.004,0.252 -0.024,0.504 -0.06,0.756 -0.036,0.253 -0.087,0.498 -0.155,0.738 -0.069,0.24 -0.168,0.451 -0.301,0.63 -0.131,0.18 -0.297,0.327 -0.498,0.438 -0.2,0.112 -0.444,0.168 -0.732,0.168 -0.288,0 -0.532,-0.056 -0.732,-0.168 -0.2,-0.111 -0.366,-0.258 -0.498,-0.438 -0.132,-0.179 -0.232,-0.39 -0.3,-0.63 -0.068,-0.24 -0.12,-0.485 -0.156,-0.738 -0.036,-0.252 -0.056,-0.504 -0.06,-0.756 -0.004,-0.252 -0.006,-0.481 -0.006,-0.69 0,-0.319 0.01,-0.678 0.03,-1.074 z m -1.086,2.035 c 0.016,0.336 0.056,0.664 0.12,0.983 0.064,0.32 0.157,0.624 0.276,0.912 0.12,0.288 0.284,0.54 0.492,0.756 0.208,0.216 0.47,0.388 0.786,0.517 0.317,0.127 0.694,0.191 1.134,0.191 0.44,0 0.818,-0.064 1.135,-0.191 0.315,-0.129 0.577,-0.301 0.785,-0.517 0.208,-0.216 0.372,-0.468 0.492,-0.756 0.12,-0.288 0.212,-0.592 0.276,-0.912 0.064,-0.319 0.104,-0.647 0.12,-0.983 0.016,-0.336 0.024,-0.66 0.024,-0.973 0,-0.312 -0.008,-0.636 -0.024,-0.972 -0.016,-0.335 -0.056,-0.664 -0.12,-0.983 -0.064,-0.32 -0.156,-0.623 -0.276,-0.906 -0.12,-0.285 -0.284,-0.535 -0.492,-0.75 -0.208,-0.217 -0.468,-0.387 -0.78,-0.51 -0.312,-0.125 -0.691,-0.186 -1.14,-0.186 -0.44,0 -0.817,0.061 -1.134,0.186 -0.316,0.123 -0.578,0.293 -0.786,0.51 -0.208,0.215 -0.372,0.465 -0.492,0.75 -0.119,0.283 -0.212,0.586 -0.276,0.906 -0.064,0.319 -0.104,0.648 -0.12,0.983 -0.016,0.336 -0.024,0.66 -0.024,0.972 0,0.313 0.008,0.637 0.024,0.973"
           id="path3194"
           style="fill:#176fc1;fill-opacity:1;fill-rule:nonzero;stroke:none" /><path
           d="m 176.331,53.683 c -0.076,0.276 -0.192,0.522 -0.348,0.739 -0.156,0.216 -0.356,0.387 -0.6,0.515 -0.244,0.128 -0.53,0.193 -0.858,0.193 -0.344,0 -0.636,-0.069 -0.876,-0.205 -0.24,-0.136 -0.436,-0.314 -0.588,-0.534 -0.152,-0.219 -0.262,-0.469 -0.33,-0.75 -0.068,-0.28 -0.102,-0.563 -0.102,-0.852 0,-0.304 0.036,-0.598 0.108,-0.881 0.072,-0.285 0.186,-0.535 0.342,-0.75 0.156,-0.217 0.358,-0.391 0.607,-0.523 0.247,-0.131 0.547,-0.198 0.899,-0.198 0.352,0 0.646,0.069 0.882,0.204 0.236,0.136 0.426,0.316 0.57,0.54 0.144,0.224 0.248,0.481 0.312,0.768 0.064,0.289 0.096,0.584 0.096,0.889 0,0.287 -0.038,0.57 -0.114,0.845 z m -3.666,2.202 0,-0.84 0.024,0 c 0.168,0.344 0.432,0.594 0.792,0.75 0.36,0.156 0.756,0.234 1.188,0.234 0.48,0 0.898,-0.088 1.254,-0.264 0.356,-0.175 0.652,-0.414 0.888,-0.713 0.236,-0.3 0.414,-0.647 0.534,-1.039 0.12,-0.392 0.18,-0.808 0.18,-1.248 0,-0.439 -0.058,-0.855 -0.174,-1.248 -0.116,-0.392 -0.292,-0.734 -0.528,-1.025 -0.236,-0.293 -0.532,-0.522 -0.887,-0.69 -0.357,-0.168 -0.771,-0.252 -1.243,-0.252 -0.152,0 -0.322,0.016 -0.51,0.047 -0.188,0.033 -0.374,0.084 -0.558,0.157 -0.184,0.072 -0.358,0.17 -0.521,0.294 -0.165,0.124 -0.303,0.278 -0.415,0.462 l -0.024,0 0,-3.192 -1.02,0 0,8.567 1.02,0"
           id="path3196"
           style="fill:#176fc1;fill-opacity:1;fill-rule:nonzero;stroke:none" /><path
           d="m 178.233,55.885 1.308,0 1.488,-2.171 1.548,2.171 1.224,0 -2.136,-2.856 2.4,-3.348 -1.308,0 -1.728,2.569 -1.728,-2.569 -1.236,0 2.328,3.264 -2.16,2.94"
           id="path3198"
           style="fill:#176fc1;fill-opacity:1;fill-rule:nonzero;stroke:none" /><path
           d="m 335.633,72.65 0,-7.607 4.536,0 0,-0.961 -5.675,0 0,8.568 1.139,0"
           id="path3200"
           style="fill:#176fc1;fill-opacity:1;fill-rule:nonzero;stroke:none" /><path
           d="m 344.333,67.076 c -0.209,-0.044 -0.425,-0.08 -0.654,-0.108 -0.228,-0.028 -0.459,-0.06 -0.69,-0.095 -0.232,-0.037 -0.441,-0.095 -0.624,-0.174 -0.184,-0.08 -0.334,-0.195 -0.45,-0.343 -0.117,-0.147 -0.173,-0.35 -0.173,-0.606 0,-0.168 0.033,-0.31 0.101,-0.426 0.068,-0.115 0.156,-0.209 0.264,-0.281 0.107,-0.072 0.236,-0.125 0.385,-0.157 0.147,-0.032 0.296,-0.048 0.449,-0.048 0.336,0 0.624,0.047 0.864,0.138 0.239,0.092 0.436,0.208 0.588,0.348 0.151,0.141 0.265,0.293 0.336,0.457 0.071,0.163 0.108,0.317 0.108,0.461 l 0,1.045 c -0.129,-0.097 -0.297,-0.166 -0.504,-0.211 z m 1.428,-3.125 c -0.264,0 -0.474,0.073 -0.631,0.221 -0.155,0.148 -0.233,0.39 -0.233,0.726 -0.28,-0.336 -0.607,-0.578 -0.978,-0.726 -0.373,-0.148 -0.774,-0.221 -1.207,-0.221 -0.279,0 -0.543,0.029 -0.791,0.09 -0.248,0.059 -0.467,0.16 -0.654,0.299 -0.188,0.14 -0.336,0.32 -0.443,0.541 -0.11,0.219 -0.162,0.486 -0.162,0.797 0,0.352 0.059,0.64 0.179,0.865 0.119,0.223 0.278,0.405 0.474,0.545 0.196,0.14 0.42,0.246 0.672,0.318 0.252,0.072 0.51,0.133 0.774,0.18 0.279,0.056 0.546,0.098 0.798,0.127 0.252,0.027 0.474,0.067 0.666,0.119 0.192,0.053 0.344,0.129 0.456,0.228 0.111,0.1 0.168,0.246 0.168,0.438 0,0.224 -0.042,0.404 -0.126,0.541 -0.084,0.135 -0.192,0.239 -0.324,0.311 -0.132,0.072 -0.28,0.121 -0.445,0.144 -0.164,0.024 -0.326,0.037 -0.485,0.037 -0.432,0 -0.792,-0.083 -1.08,-0.246 -0.288,-0.164 -0.444,-0.475 -0.468,-0.931 l -1.02,0 c 0.016,0.384 0.096,0.708 0.24,0.972 0.144,0.264 0.336,0.478 0.575,0.642 0.24,0.165 0.517,0.282 0.828,0.354 0.313,0.072 0.641,0.108 0.985,0.108 0.28,0 0.558,-0.02 0.834,-0.059 0.276,-0.041 0.526,-0.123 0.75,-0.246 0.224,-0.125 0.404,-0.299 0.54,-0.523 0.135,-0.223 0.204,-0.516 0.204,-0.876 l 0,-3.191 c 0,-0.24 0.014,-0.416 0.042,-0.529 0.028,-0.112 0.122,-0.168 0.282,-0.168 0.088,0 0.191,0.02 0.313,0.06 l 0,-0.792 c -0.177,-0.104 -0.42,-0.155 -0.733,-0.155"
           id="path3202"
           style="fill:#176fc1;fill-opacity:1;fill-rule:nonzero;stroke:none" /><path
           d="m 348.365,70.287 0,-1.309 0.023,0 c 0.248,0.504 0.553,0.876 0.912,1.117 0.361,0.239 0.817,0.351 1.369,0.335 l 0,-1.08 c -0.408,0 -0.756,-0.055 -1.045,-0.168 -0.287,-0.112 -0.519,-0.276 -0.695,-0.492 -0.176,-0.216 -0.305,-0.477 -0.385,-0.786 -0.08,-0.308 -0.119,-0.662 -0.119,-1.062 l 0,-2.76 -1.02,0 0,6.205 0.96,0"
           id="path3204"
           style="fill:#176fc1;fill-opacity:1;fill-rule:nonzero;stroke:none" /><path
           d="m 354.454,65.121 c 0.237,0.139 0.426,0.323 0.571,0.551 0.144,0.228 0.25,0.486 0.318,0.774 0.068,0.288 0.102,0.576 0.102,0.864 0,0.272 -0.032,0.54 -0.096,0.805 -0.064,0.264 -0.166,0.502 -0.307,0.713 -0.139,0.213 -0.322,0.383 -0.545,0.51 -0.224,0.129 -0.496,0.193 -0.816,0.193 -0.328,0 -0.608,-0.063 -0.84,-0.186 -0.232,-0.124 -0.422,-0.291 -0.57,-0.499 -0.149,-0.208 -0.256,-0.448 -0.324,-0.719 -0.069,-0.273 -0.102,-0.557 -0.102,-0.853 0,-0.28 0.027,-0.559 0.084,-0.84 0.056,-0.28 0.152,-0.534 0.287,-0.762 0.137,-0.228 0.317,-0.412 0.541,-0.551 0.224,-0.141 0.504,-0.211 0.84,-0.211 0.336,0 0.621,0.07 0.857,0.211 z m 1.303,-2.791 c -0.465,-0.504 -1.192,-0.756 -2.183,-0.756 -0.289,0 -0.582,0.032 -0.883,0.096 -0.3,0.064 -0.572,0.168 -0.817,0.312 -0.244,0.145 -0.445,0.332 -0.605,0.565 -0.16,0.232 -0.248,0.515 -0.264,0.851 l 1.02,0 c 0.008,-0.183 0.066,-0.34 0.174,-0.468 0.108,-0.127 0.24,-0.231 0.396,-0.311 0.156,-0.08 0.326,-0.139 0.51,-0.175 0.183,-0.036 0.359,-0.054 0.527,-0.054 0.337,0 0.621,0.059 0.853,0.174 0.231,0.116 0.425,0.276 0.576,0.481 0.151,0.203 0.262,0.449 0.33,0.738 0.067,0.287 0.103,0.603 0.103,0.947 l 0,0.408 -0.025,0 c -0.177,-0.384 -0.442,-0.666 -0.798,-0.845 -0.356,-0.181 -0.734,-0.271 -1.134,-0.271 -0.464,0 -0.868,0.084 -1.211,0.252 -0.345,0.168 -0.633,0.394 -0.866,0.679 -0.231,0.283 -0.406,0.615 -0.521,0.996 -0.116,0.379 -0.174,0.781 -0.174,1.205 0,0.368 0.048,0.746 0.145,1.135 0.095,0.386 0.255,0.739 0.479,1.056 0.224,0.315 0.521,0.575 0.888,0.78 0.368,0.203 0.82,0.305 1.355,0.305 0.393,0 0.752,-0.087 1.08,-0.258 0.328,-0.172 0.584,-0.43 0.769,-0.774 l 0.013,0 0,0.889 0.959,0 0,-5.677 c 0,-1.015 -0.233,-1.776 -0.696,-2.28"
           id="path3206"
           style="fill:#176fc1;fill-opacity:1;fill-rule:nonzero;stroke:none" /><path
           d="m 362.134,68.463 c -0.092,0.215 -0.215,0.402 -0.371,0.557 -0.156,0.157 -0.341,0.28 -0.553,0.372 -0.212,0.092 -0.445,0.139 -0.701,0.139 -0.264,0 -0.503,-0.047 -0.715,-0.139 -0.212,-0.092 -0.394,-0.218 -0.546,-0.378 -0.151,-0.16 -0.272,-0.346 -0.36,-0.557 -0.088,-0.213 -0.14,-0.439 -0.155,-0.679 l 3.563,0 c -0.015,0.24 -0.07,0.468 -0.162,0.685 z m 0.246,-3.985 c -0.463,-0.351 -1.048,-0.527 -1.752,-0.527 -0.496,0 -0.925,0.08 -1.289,0.239 -0.365,0.16 -0.671,0.384 -0.918,0.672 -0.248,0.288 -0.434,0.632 -0.558,1.032 -0.124,0.401 -0.195,0.836 -0.21,1.309 0,0.471 0.071,0.903 0.216,1.295 0.144,0.392 0.345,0.732 0.605,1.02 0.26,0.288 0.568,0.512 0.925,0.672 0.355,0.16 0.745,0.24 1.17,0.24 0.552,0 1.01,-0.114 1.374,-0.342 0.363,-0.228 0.656,-0.518 0.876,-0.87 0.219,-0.352 0.372,-0.736 0.456,-1.152 0.084,-0.416 0.117,-0.812 0.101,-1.187 l -4.643,0 c -0.009,-0.273 0.024,-0.531 0.096,-0.775 0.072,-0.244 0.188,-0.46 0.348,-0.647 0.159,-0.189 0.363,-0.338 0.611,-0.451 0.249,-0.112 0.541,-0.168 0.876,-0.168 0.433,0 0.787,0.1 1.062,0.3 0.277,0.2 0.459,0.504 0.547,0.912 l 1.008,0 c -0.137,-0.696 -0.436,-1.22 -0.901,-1.572"
           id="path3208"
           style="fill:#176fc1;fill-opacity:1;fill-rule:nonzero;stroke:none" /><path
           d="m 365.357,70.287 0,-1.309 0.023,0 c 0.248,0.504 0.553,0.876 0.912,1.117 0.36,0.239 0.817,0.351 1.369,0.335 l 0,-1.08 c -0.409,0 -0.756,-0.055 -1.044,-0.168 -0.288,-0.112 -0.521,-0.276 -0.697,-0.492 -0.175,-0.216 -0.303,-0.477 -0.383,-0.786 -0.081,-0.308 -0.12,-0.662 -0.12,-1.062 l 0,-2.76 -1.021,0 0,6.205 0.961,0"
           id="path3210"
           style="fill:#176fc1;fill-opacity:1;fill-rule:nonzero;stroke:none" /><path
           d="m 318.257,54.986 0,0.9 1.044,0 0,0.924 c 0,0.504 0.146,0.887 0.439,1.147 0.291,0.26 0.716,0.389 1.277,0.389 0.096,0 0.206,-0.008 0.33,-0.024 0.124,-0.016 0.234,-0.039 0.33,-0.072 l 0,-0.887 c -0.088,0.031 -0.183,0.053 -0.288,0.065 -0.104,0.012 -0.2,0.019 -0.288,0.019 -0.248,0 -0.439,-0.049 -0.576,-0.144 -0.136,-0.096 -0.203,-0.281 -0.203,-0.553 l 0,-0.864 1.199,0 0,-0.9 -1.199,0 0,-5.304 -1.021,0 0,5.304 -1.044,0"
           id="path3212"
           style="fill:#176fc1;fill-opacity:1;fill-rule:nonzero;stroke:none" /><path
           d="m 323.328,51.777 c 0.099,-0.293 0.237,-0.537 0.414,-0.732 0.175,-0.197 0.38,-0.346 0.617,-0.45 0.236,-0.105 0.486,-0.157 0.75,-0.157 0.263,0 0.513,0.052 0.75,0.157 0.236,0.104 0.441,0.253 0.618,0.45 0.176,0.195 0.313,0.439 0.414,0.732 0.101,0.291 0.149,0.625 0.149,1.002 0,0.375 -0.048,0.709 -0.149,1.002 -0.101,0.291 -0.238,0.537 -0.414,0.737 -0.177,0.2 -0.382,0.353 -0.618,0.456 -0.237,0.104 -0.487,0.157 -0.75,0.157 -0.264,0 -0.514,-0.053 -0.75,-0.157 -0.237,-0.103 -0.442,-0.256 -0.617,-0.456 -0.177,-0.2 -0.315,-0.446 -0.414,-0.737 -0.101,-0.293 -0.151,-0.627 -0.151,-1.002 0,-0.377 0.05,-0.711 0.151,-1.002 z m -1.04,2.279 c 0.129,0.397 0.321,0.741 0.577,1.032 0.256,0.293 0.572,0.523 0.948,0.691 0.376,0.168 0.808,0.252 1.296,0.252 0.496,0 0.929,-0.084 1.303,-0.252 0.371,-0.168 0.685,-0.398 0.941,-0.691 0.256,-0.291 0.447,-0.635 0.576,-1.032 0.128,-0.396 0.192,-0.822 0.192,-1.277 0,-0.457 -0.064,-0.881 -0.192,-1.272 -0.129,-0.392 -0.32,-0.735 -0.576,-1.027 -0.256,-0.292 -0.57,-0.519 -0.941,-0.683 -0.374,-0.164 -0.807,-0.247 -1.303,-0.247 -0.488,0 -0.92,0.083 -1.296,0.247 -0.376,0.164 -0.692,0.391 -0.948,0.683 -0.256,0.292 -0.448,0.635 -0.577,1.027 -0.126,0.391 -0.191,0.815 -0.191,1.272 0,0.455 0.065,0.881 0.191,1.277"
           id="path3214"
           style="fill:#176fc1;fill-opacity:1;fill-rule:nonzero;stroke:none" /><path
           d="m 330.246,55.886 0,-1.308 0.023,0 c 0.248,0.504 0.553,0.877 0.912,1.117 0.359,0.239 0.816,0.352 1.368,0.336 l 0,-1.08 c -0.408,0 -0.756,-0.057 -1.044,-0.168 -0.288,-0.113 -0.52,-0.276 -0.696,-0.492 -0.176,-0.217 -0.304,-0.479 -0.384,-0.787 -0.08,-0.307 -0.12,-0.662 -0.12,-1.062 l 0,-2.76 -1.02,0 0,6.204 0.961,0"
           id="path3216"
           style="fill:#176fc1;fill-opacity:1;fill-rule:nonzero;stroke:none" /><path
           d="m 339.136,49.682 0,6.097 -2.207,0 0,0.816 c 0.287,0 0.567,0.022 0.84,0.065 0.271,0.045 0.518,0.127 0.738,0.246 0.219,0.121 0.405,0.284 0.558,0.492 0.151,0.208 0.256,0.473 0.311,0.792 l 0.781,0 0,-8.508 -1.021,0"
           id="path3218"
           style="fill:#176fc1;fill-opacity:1;fill-rule:nonzero;stroke:none" /><path
           d="m 343.217,56.379 c 0.112,0.367 0.286,0.685 0.523,0.953 0.235,0.268 0.529,0.478 0.881,0.631 0.352,0.151 0.751,0.227 1.201,0.227 0.367,0 0.713,-0.054 1.037,-0.161 0.324,-0.109 0.606,-0.265 0.845,-0.469 0.241,-0.204 0.431,-0.458 0.571,-0.761 0.14,-0.305 0.211,-0.657 0.211,-1.057 0,-0.375 -0.059,-0.707 -0.175,-0.996 -0.116,-0.287 -0.271,-0.545 -0.462,-0.774 -0.191,-0.228 -0.412,-0.433 -0.66,-0.618 -0.248,-0.184 -0.504,-0.36 -0.768,-0.528 -0.263,-0.16 -0.528,-0.317 -0.793,-0.474 -0.263,-0.155 -0.506,-0.322 -0.724,-0.498 -0.221,-0.176 -0.408,-0.366 -0.565,-0.569 -0.156,-0.205 -0.258,-0.439 -0.306,-0.703 l 4.369,0 0,-0.9 -5.557,0 c 0.04,0.504 0.13,0.935 0.27,1.29 0.14,0.356 0.318,0.666 0.534,0.93 0.216,0.264 0.46,0.496 0.732,0.696 0.272,0.201 0.556,0.388 0.852,0.564 0.36,0.224 0.677,0.43 0.948,0.619 0.272,0.187 0.498,0.377 0.678,0.569 0.179,0.193 0.316,0.4 0.408,0.624 0.092,0.225 0.139,0.485 0.139,0.78 0,0.232 -0.045,0.443 -0.133,0.631 -0.088,0.187 -0.206,0.349 -0.354,0.486 -0.148,0.135 -0.322,0.24 -0.522,0.311 -0.2,0.072 -0.412,0.109 -0.636,0.109 -0.297,0 -0.551,-0.063 -0.762,-0.187 -0.212,-0.124 -0.386,-0.286 -0.522,-0.485 -0.136,-0.201 -0.233,-0.427 -0.294,-0.679 -0.061,-0.252 -0.086,-0.506 -0.078,-0.762 l -1.02,0 c -0.024,0.433 0.02,0.832 0.132,1.201"
           id="path3220"
           style="fill:#176fc1;fill-opacity:1;fill-rule:nonzero;stroke:none" /><path
           d="m 350.843,52.797 c 0.02,-0.397 0.084,-0.768 0.192,-1.117 0.108,-0.348 0.282,-0.641 0.522,-0.881 0.239,-0.241 0.575,-0.361 1.008,-0.361 0.432,0 0.768,0.12 1.009,0.361 0.239,0.24 0.413,0.533 0.521,0.881 0.108,0.349 0.172,0.72 0.192,1.117 0.019,0.395 0.03,0.753 0.03,1.074 0,0.207 -0.002,0.437 -0.006,0.689 -0.005,0.252 -0.024,0.504 -0.06,0.756 -0.037,0.252 -0.088,0.498 -0.156,0.738 -0.068,0.241 -0.168,0.45 -0.301,0.63 -0.131,0.181 -0.297,0.326 -0.498,0.439 -0.199,0.111 -0.443,0.168 -0.731,0.168 -0.288,0 -0.532,-0.057 -0.732,-0.168 -0.201,-0.113 -0.367,-0.258 -0.498,-0.439 -0.132,-0.18 -0.232,-0.389 -0.3,-0.63 -0.069,-0.24 -0.12,-0.486 -0.157,-0.738 -0.035,-0.252 -0.055,-0.504 -0.059,-0.756 -0.004,-0.252 -0.006,-0.482 -0.006,-0.689 0,-0.321 0.01,-0.679 0.03,-1.074 z m -1.086,2.033 c 0.016,0.336 0.056,0.664 0.119,0.984 0.065,0.321 0.157,0.624 0.277,0.912 0.12,0.288 0.284,0.54 0.492,0.756 0.208,0.217 0.47,0.389 0.786,0.516 0.316,0.129 0.693,0.192 1.134,0.192 0.44,0 0.817,-0.063 1.134,-0.192 0.316,-0.127 0.578,-0.299 0.786,-0.516 0.208,-0.216 0.372,-0.468 0.492,-0.756 0.12,-0.288 0.212,-0.591 0.276,-0.912 0.064,-0.32 0.104,-0.648 0.119,-0.984 0.017,-0.336 0.025,-0.66 0.025,-0.972 0,-0.311 -0.008,-0.636 -0.025,-0.972 -0.015,-0.336 -0.055,-0.664 -0.119,-0.984 -0.064,-0.32 -0.156,-0.622 -0.276,-0.906 -0.12,-0.283 -0.284,-0.533 -0.492,-0.75 -0.208,-0.215 -0.468,-0.386 -0.781,-0.51 -0.311,-0.123 -0.691,-0.186 -1.139,-0.186 -0.441,0 -0.818,0.063 -1.134,0.186 -0.316,0.124 -0.578,0.295 -0.786,0.51 -0.208,0.217 -0.372,0.467 -0.492,0.75 -0.12,0.284 -0.212,0.586 -0.277,0.906 -0.063,0.32 -0.103,0.648 -0.119,0.984 -0.016,0.336 -0.024,0.661 -0.024,0.972 0,0.312 0.008,0.636 0.024,0.972"
           id="path3222"
           style="fill:#176fc1;fill-opacity:1;fill-rule:nonzero;stroke:none" /><path
           d="m 361.391,53.684 c -0.076,0.277 -0.192,0.523 -0.349,0.739 -0.156,0.215 -0.355,0.387 -0.599,0.515 -0.244,0.128 -0.531,0.193 -0.858,0.193 -0.344,0 -0.636,-0.069 -0.877,-0.204 -0.24,-0.136 -0.435,-0.314 -0.587,-0.535 -0.153,-0.22 -0.262,-0.47 -0.331,-0.75 -0.068,-0.28 -0.101,-0.564 -0.101,-0.851 0,-0.305 0.036,-0.599 0.107,-0.883 0.073,-0.283 0.187,-0.533 0.342,-0.75 0.156,-0.216 0.358,-0.39 0.608,-0.522 0.247,-0.132 0.546,-0.198 0.899,-0.198 0.351,0 0.645,0.068 0.882,0.204 0.236,0.136 0.426,0.317 0.57,0.54 0.144,0.224 0.248,0.48 0.312,0.769 0.063,0.287 0.096,0.584 0.096,0.887 0,0.289 -0.039,0.57 -0.114,0.846 z m -3.666,2.202 0,-0.839 0.024,0 c 0.168,0.343 0.432,0.593 0.791,0.75 0.361,0.156 0.756,0.234 1.189,0.234 0.479,0 0.897,-0.089 1.254,-0.265 0.356,-0.176 0.651,-0.414 0.888,-0.713 0.236,-0.301 0.414,-0.647 0.534,-1.039 0.12,-0.391 0.18,-0.807 0.18,-1.248 0,-0.44 -0.058,-0.856 -0.174,-1.248 -0.117,-0.391 -0.292,-0.733 -0.529,-1.026 -0.235,-0.291 -0.531,-0.521 -0.886,-0.689 -0.358,-0.168 -0.772,-0.253 -1.243,-0.253 -0.152,0 -0.322,0.016 -0.51,0.048 -0.189,0.033 -0.374,0.084 -0.558,0.156 -0.184,0.072 -0.358,0.17 -0.522,0.295 -0.164,0.123 -0.302,0.277 -0.414,0.461 l -0.024,0 0,-3.192 -1.021,0 0,8.568 1.021,0"
           id="path3224"
           style="fill:#176fc1;fill-opacity:1;fill-rule:nonzero;stroke:none" /><path
           d="m 363.292,55.886 1.309,0 1.487,-2.171 1.548,2.171 1.225,0 -2.137,-2.855 2.4,-3.349 -1.308,0 -1.728,2.568 -1.727,-2.568 -1.237,0 2.329,3.265 -2.161,2.939"
           id="path3226"
           style="fill:#176fc1;fill-opacity:1;fill-rule:nonzero;stroke:none" /><path
           d="m 379.193,53.127 0,-0.817 -2.616,0 0,-2.628 -0.816,0 0,2.628 -2.616,0 0,0.817 2.616,0 0,2.627 0.816,0 0,-2.627 2.616,0"
           id="path3228"
           style="fill:#176fc1;fill-opacity:1;fill-rule:nonzero;stroke:none" /></g></g></g></svg>