<?xml version="1.0" encoding="UTF-8" standalone="no"?>
<!-- Generator: Adobe Illustrator 18.1.1, SVG Export Plug-In . SVG Version: 6.00 Build 0)  -->

<svg
   xmlns:dc="http://purl.org/dc/elements/1.1/"
   xmlns:cc="http://creativecommons.org/ns#"
   xmlns:rdf="http://www.w3.org/1999/02/22-rdf-syntax-ns#"
   xmlns:svg="http://www.w3.org/2000/svg"
   xmlns="http://www.w3.org/2000/svg"
   xmlns:sodipodi="http://sodipodi.sourceforge.net/DTD/sodipodi-0.dtd"
   xmlns:inkscape="http://www.inkscape.org/namespaces/inkscape"
   version="1.1"
   id="Capa_1"
   x="0px"
   y="0px"
   viewBox="0 0 21.874 21.874"
   style="enable-background:new 0 0 21.874 21.874;"
   xml:space="preserve"
   inkscape:version="0.48.5 r10040"
   width="100%"
   height="100%"
   sodipodi:docname="network-diagram.svg"><metadata
     id="metadata3044"><rdf:RDF><cc:Work
         rdf:about=""><dc:format>image/svg+xml</dc:format><dc:type
           rdf:resource="http://purl.org/dc/dcmitype/StillImage" /><dc:title></dc:title></cc:Work></rdf:RDF></metadata><defs
     id="defs3042" /><sodipodi:namedview
     pagecolor="#ffffff"
     bordercolor="#666666"
     borderopacity="1"
     objecttolerance="10"
     gridtolerance="10"
     guidetolerance="10"
     inkscape:pageopacity="0"
     inkscape:pageshadow="2"
     inkscape:window-width="1362"
     inkscape:window-height="761"
     id="namedview3040"
     showgrid="false"
     inkscape:zoom="15.258042"
     inkscape:cx="10.937"
     inkscape:cy="10.937"
     inkscape:window-x="66"
     inkscape:window-y="0"
     inkscape:window-maximized="0"
     inkscape:current-layer="g3004" /><g
     id="g2986"><g
       id="g2988"><g
         id="g3004"><path
           sodipodi:type="arc"
           style="fill:#000000;fill-opacity:1;stroke:#ffffff;stroke-width:0.5;stroke-miterlimit:4;stroke-opacity:1;stroke-dasharray:none"
           id="path3046"
           sodipodi:cx="11.261402"
           sodipodi:cy="10.751627"
           sodipodi:rx="3.0123093"
           sodipodi:ry="3.1513391"
           d="m 14.273711,10.751627 a 3.0123093,3.1513391 0 1 1 -6.0246182,0 3.0123093,3.1513391 0 1 1 6.0246182,0 z"
           transform="matrix(1.3457853,0,0,1.2369424,-4.8432923,-3.0390608)" /><path
           sodipodi:type="arc"
           style="fill:#000000;fill-opacity:1;stroke:#ffffff;stroke-width:0.5;stroke-miterlimit:4;stroke-opacity:1;stroke-dasharray:none"
           id="path3056"
           sodipodi:cx="3.7357349"
           sodipodi:cy="4.4078002"
           sodipodi:rx="1.3763235"
           sodipodi:ry="1.3435538"
           d="m 5.1120584,4.4078002 a 1.3763235,1.3435538 0 1 1 -2.7526469,0 1.3763235,1.3435538 0 1 1 2.7526469,0 z"
           transform="matrix(1.243218,0,0,1.2247599,12.723558,13.657316)" /><path
           transform="matrix(1.243218,0,0,1.2247599,15.082969,9.7249637)"
           d="m 5.1120584,4.4078002 a 1.3763235,1.3435538 0 1 1 -2.7526469,0 1.3763235,1.3435538 0 1 1 2.7526469,0 z"
           sodipodi:ry="1.3435538"
           sodipodi:rx="1.3763235"
           sodipodi:cy="4.4078002"
           sodipodi:cx="3.7357349"
           id="path3106"
           style="fill:#000000;fill-opacity:1;stroke:#ffffff;stroke-width:0.5;stroke-miterlimit:4;stroke-opacity:1;stroke-dasharray:none"
           sodipodi:type="arc" /><path
           sodipodi:type="arc"
           style="fill:#000000;fill-opacity:1;stroke:#ffffff;stroke-width:0.5;stroke-miterlimit:4;stroke-opacity:1;stroke-dasharray:none"
           id="path3108"
           sodipodi:cx="3.7357349"
           sodipodi:cy="4.4078002"
           sodipodi:rx="1.3763235"
           sodipodi:ry="1.3435538"
           d="m 5.1120584,4.4078002 a 1.3763235,1.3435538 0 1 1 -2.7526469,0 1.3763235,1.3435538 0 1 1 2.7526469,0 z"
           transform="matrix(1.243218,0,0,1.2247599,-0.44982331,-3.3173391)" /><path
           transform="matrix(1.243218,0,0,1.2247599,-2.4815386,-0.56469215)"
           d="m 5.1120584,4.4078002 a 1.3763235,1.3435538 0 1 1 -2.7526469,0 1.3763235,1.3435538 0 1 1 2.7526469,0 z"
           sodipodi:ry="1.3435538"
           sodipodi:rx="1.3763235"
           sodipodi:cy="4.4078002"
           sodipodi:cx="3.7357349"
           id="path3110"
           style="fill:#000000;fill-opacity:1;stroke:#ffffff;stroke-width:0.5;stroke-miterlimit:4;stroke-opacity:1;stroke-dasharray:none"
           sodipodi:type="arc" /><path
           sodipodi:type="arc"
           style="fill:#000000;fill-opacity:1;stroke:#ffffff;stroke-width:0.5;stroke-miterlimit:4;stroke-opacity:1;stroke-dasharray:none"
           id="path3112"
           sodipodi:cx="3.7357349"
           sodipodi:cy="4.4078002"
           sodipodi:rx="1.3763235"
           sodipodi:ry="1.3435538"
           d="m 5.1120584,4.4078002 a 1.3763235,1.3435538 0 1 1 -2.7526469,0 1.3763235,1.3435538 0 1 1 2.7526469,0 z"
           transform="matrix(1.243218,0,0,1.2247599,1.5163531,0.09069995)" /><path
           transform="matrix(1.243218,0,0,1.2247599,14.427577,-2.2031724)"
           d="m 5.1120584,4.4078002 a 1.3763235,1.3435538 0 1 1 -2.7526469,0 1.3763235,1.3435538 0 1 1 2.7526469,0 z"
           sodipodi:ry="1.3435538"
           sodipodi:rx="1.3763235"
           sodipodi:cy="4.4078002"
           sodipodi:cx="3.7357349"
           id="path3114"
           style="fill:#000000;fill-opacity:1;stroke:#ffffff;stroke-width:0.5;stroke-miterlimit:4;stroke-opacity:1;stroke-dasharray:none"
           sodipodi:type="arc" /><path
           sodipodi:type="arc"
           style="fill:#000000;fill-opacity:1;stroke:#ffffff;stroke-width:0.5;stroke-miterlimit:4;stroke-opacity:1;stroke-dasharray:none"
           id="path3116"
           sodipodi:cx="3.7357349"
           sodipodi:cy="4.4078002"
           sodipodi:rx="1.3763235"
           sodipodi:ry="1.3435538"
           d="m 5.1120584,4.4078002 a 1.3763235,1.3435538 0 1 1 -2.7526469,0 1.3763235,1.3435538 0 1 1 2.7526469,0 z"
           transform="matrix(1.243218,0,0,1.2247599,-1.1052156,12.739767)" /><path
           transform="matrix(1.243218,0,0,1.2247599,5.6453234,13.657316)"
           d="m 5.1120584,4.4078002 a 1.3763235,1.3435538 0 1 1 -2.7526469,0 1.3763235,1.3435538 0 1 1 2.7526469,0 z"
           sodipodi:ry="1.3435538"
           sodipodi:rx="1.3763235"
           sodipodi:cy="4.4078002"
           sodipodi:cx="3.7357349"
           id="path3118"
           style="fill:#000000;fill-opacity:1;stroke:#ffffff;stroke-width:0.5;stroke-miterlimit:4;stroke-opacity:1;stroke-dasharray:none"
           sodipodi:type="arc" /><path
           style="fill:none;stroke:#000000;stroke-width:1px;stroke-linecap:butt;stroke-linejoin:miter;stroke-opacity:1"
           d="m 6.226225,5.4236581 c 3.4735782,3.9323526 3.4735782,3.9323526 3.4735782,3.9323526 l 0,0 0,0"
           id="path3120"
           inkscape:connector-curvature="0" /><path
           style="fill:none;stroke:#000000;stroke-width:1px;stroke-linecap:butt;stroke-linejoin:miter;stroke-opacity:1"
           d="M 2.162794,4.9648836 C 3.8668134,2.3433152 3.9323526,2.3433152 3.9323526,2.3433152"
           id="path3122"
           inkscape:connector-curvature="0" /><path
           style="fill:none;stroke:#000000;stroke-width:1px;stroke-linecap:butt;stroke-linejoin:miter;stroke-opacity:1"
           d="M 4.4566663,2.6710113 C 6.1606858,5.2270405 6.1606858,5.2270405 6.1606858,5.2270405"
           id="path3124"
           inkscape:connector-curvature="0" /><path
           style="fill:none;stroke:#000000;stroke-width:1px;stroke-linecap:butt;stroke-linejoin:miter;stroke-opacity:1"
           d="M 3.5391174,18.269343 C 9.5031856,10.535717 9.5031856,10.535717 9.5031856,10.535717"
           id="path3128"
           inkscape:connector-curvature="0" /><path
           style="fill:none;stroke:#000000;stroke-width:1px;stroke-linecap:butt;stroke-linejoin:miter;stroke-opacity:1"
           d="M 10.748431,19.055814 C 10.551813,10.928952 10.551813,10.994491 10.551813,10.994491"
           id="path3130"
           inkscape:connector-curvature="0" /><path
           style="fill:none;stroke:#000000;stroke-width:1px;stroke-linecap:butt;stroke-linejoin:miter;stroke-opacity:1"
           d="M 11.862597,8.8972363 C 18.875293,3.3264034 18.875293,3.2608641 18.875293,3.2608641"
           id="path3132"
           inkscape:connector-curvature="0" /><path
           style="fill:none;stroke:#000000;stroke-width:1px;stroke-linecap:butt;stroke-linejoin:miter;stroke-opacity:1"
           d="m 20.054998,15.057922 c -8.192401,-4.522205 -8.25794,-4.587745 -8.25794,-4.587745"
           id="path3134"
           inkscape:connector-curvature="0" /><path
           style="fill:none;stroke:#000000;stroke-width:1px;stroke-linecap:butt;stroke-linejoin:miter;stroke-opacity:1"
           d="M 17.957744,19.38351 C 12.517989,12.305275 12.517989,12.239736 12.517989,12.239736"
           id="path3136"
           inkscape:connector-curvature="0" /><path
           style="fill:none;stroke:#000000;stroke-width:1px;stroke-linecap:butt;stroke-linejoin:miter;stroke-opacity:1"
           d="m 17.171273,19.121353 c -6.488382,0 -6.488382,0 -6.488382,0"
           id="path3138"
           inkscape:connector-curvature="0" /></g></g></g><g
     id="g3010" /><g
     id="g3012" /><g
     id="g3014" /><g
     id="g3016" /><g
     id="g3018" /><g
     id="g3020" /><g
     id="g3022" /><g
     id="g3024" /><g
     id="g3026" /><g
     id="g3028" /><g
     id="g3030" /><g
     id="g3032" /><g
     id="g3034" /><g
     id="g3036" /><g
     id="g3038" /></svg>