<?xml version="1.0" encoding="UTF-8" standalone="no"?>
<!-- Created with Inkscape (http://www.inkscape.org/) -->

<svg
   xmlns:dc="http://purl.org/dc/elements/1.1/"
   xmlns:cc="http://creativecommons.org/ns#"
   xmlns:rdf="http://www.w3.org/1999/02/22-rdf-syntax-ns#"
   xmlns:svg="http://www.w3.org/2000/svg"
   xmlns="http://www.w3.org/2000/svg"
   version="1.1"
   width="171.25"
   height="35"
   id="svg3049"
   xml:space="preserve"><metadata
     id="metadata3055"><rdf:RDF><cc:Work
         rdf:about=""><dc:format>image/svg+xml</dc:format><dc:type
           rdf:resource="http://purl.org/dc/dcmitype/StillImage" /><dc:title></dc:title></cc:Work></rdf:RDF></metadata><defs
     id="defs3053"><clipPath
       id="clipPath3065"><path
         d="M 0,0 137,0 137,28 0,28 0,0 z"
         id="path3067" /></clipPath></defs><g
     transform="matrix(1.25,0,0,-1.25,0,35)"
     id="g3057"><g
       id="g3059" /><g
       id="g3061"><g
         clip-path="url(#clipPath3065)"
         id="g3063"><path
           d="m 1.14,17.827 c 0.065,0.628 0.091,2.305 0.091,3.156 l 0,2.895 c 0,0.838 -0.026,2.528 -0.091,3.156 0.524,0 1.532,0.014 1.964,0.066 C 3.065,26.72 3.052,25.672 3.052,25.161 l 0,-5.448 c 0,-0.498 0.013,-1.519 0.052,-1.886 l -1.964,0"
           id="path3069"
           style="fill:#ffffff;fill-opacity:1;fill-rule:nonzero;stroke:none" /><path
           d="m 5.867,20.983 0.039,3.091 c 0,0.838 0,2.41 -0.066,3.039 l 0.956,0.105 5.357,-6.274 0,2.934 c 0,0.838 -0.026,2.528 -0.104,3.156 0.523,0 1.479,0.014 1.925,0.066 -0.053,-0.38 -0.079,-1.428 -0.092,-1.939 l -0.065,-5.5 c 0,-0.511 0,-1.559 0.039,-1.926 L 12.939,17.631 7.608,23.825 7.596,19.713 c 0,-0.511 0.012,-1.519 0.052,-1.886 l -1.925,0 c 0.078,0.628 0.13,2.305 0.144,3.156"
           id="path3071"
           style="fill:#ffffff;fill-opacity:1;fill-rule:nonzero;stroke:none" /><path
           d="m 18.687,17.591 c -0.943,0 -2.069,0.341 -2.763,0.76 l 0.078,1.755 c 0.563,-0.472 1.703,-0.995 2.738,-0.995 0.838,0 1.388,0.406 1.388,1.192 0,1.544 -3.916,1.728 -3.916,4.204 0,1.636 1.27,2.75 3.038,2.75 0.931,0 1.821,-0.314 2.371,-0.681 l -0.445,-1.48 c -0.498,0.353 -1.271,0.642 -1.9,0.642 -0.785,0 -1.283,-0.433 -1.283,-1.087 0,-1.454 3.89,-1.559 3.89,-4.179 0,-1.702 -1.258,-2.881 -3.196,-2.881"
           id="path3073"
           style="fill:#ffffff;fill-opacity:1;fill-rule:nonzero;stroke:none" /><path
           d="m 30.945,25.515 c -0.956,0.013 -1.807,0.027 -2.907,0.027 -0.014,-0.276 -0.014,-0.616 -0.014,-0.813 l 0,-5.016 c 0,-0.511 0.014,-1.519 0.053,-1.886 l -1.978,0 c 0.066,0.628 0.092,2.305 0.092,3.156 l 0,2.502 c 0,0.511 -0.013,1.349 -0.039,2.057 -1.1,0 -1.991,-0.014 -2.96,-0.027 0.039,0.472 0.052,1.061 0.052,1.598 1.218,-0.04 2.397,-0.065 3.864,-0.065 1.467,0 2.711,0.025 3.942,0.065 -0.052,-0.511 -0.092,-0.995 -0.105,-1.598"
           id="path3075"
           style="fill:#ffffff;fill-opacity:1;fill-rule:nonzero;stroke:none" /><path
           d="m 32.921,17.827 c 0.066,0.628 0.092,2.305 0.092,3.156 l 0,2.895 c 0,0.838 -0.026,2.528 -0.092,3.156 0.524,0 1.533,0.014 1.965,0.066 -0.039,-0.38 -0.053,-1.428 -0.053,-1.939 l 0,-5.448 c 0,-0.498 0.014,-1.519 0.053,-1.886 l -1.965,0"
           id="path3077"
           style="fill:#ffffff;fill-opacity:1;fill-rule:nonzero;stroke:none" /><path
           d="m 44.577,25.515 c -0.956,0.013 -1.807,0.027 -2.907,0.027 -0.013,-0.276 -0.013,-0.616 -0.013,-0.813 l 0,-5.016 c 0,-0.511 0.013,-1.519 0.052,-1.886 l -1.978,0 c 0.066,0.628 0.092,2.305 0.092,3.156 l 0,2.502 c 0,0.511 -0.013,1.349 -0.039,2.057 -1.1,0 -1.991,-0.014 -2.96,-0.027 0.039,0.472 0.052,1.061 0.052,1.598 1.218,-0.04 2.397,-0.065 3.864,-0.065 1.467,0 2.711,0.025 3.942,0.065 -0.052,-0.511 -0.092,-0.995 -0.105,-1.598"
           id="path3079"
           style="fill:#ffffff;fill-opacity:1;fill-rule:nonzero;stroke:none" /><path
           d="m 54.28,25.161 0,-3.405 c 0,-1.519 -0.366,-2.371 -1.073,-3.077 -0.721,-0.708 -1.703,-1.088 -3.013,-1.088 -2.213,0 -3.746,1.284 -3.746,3.484 l 0,2.803 c 0,0.838 -0.026,2.528 -0.091,3.156 0.523,0 1.532,0.014 1.964,0.066 -0.039,-0.38 -0.052,-1.428 -0.052,-1.939 l 0,-3.641 c 0,-1.742 0.812,-2.384 2.148,-2.384 1.31,0 2.043,0.787 2.043,2.122 l 0,2.62 c 0,0.838 -0.026,2.528 -0.105,3.156 0.524,0 1.546,0.014 1.991,0.066 -0.052,-0.38 -0.066,-1.428 -0.066,-1.939"
           id="path3081"
           style="fill:#ffffff;fill-opacity:1;fill-rule:nonzero;stroke:none" /><path
           d="m 63.84,25.515 c -0.956,0.013 -1.808,0.027 -2.908,0.027 -0.013,-0.276 -0.013,-0.616 -0.013,-0.813 l 0,-5.016 c 0,-0.511 0.013,-1.519 0.053,-1.886 l -1.978,0 c 0.066,0.628 0.092,2.305 0.092,3.156 l 0,2.502 c 0,0.511 -0.014,1.349 -0.04,2.057 -1.1,0 -1.99,-0.014 -2.96,-0.027 0.04,0.472 0.053,1.061 0.053,1.598 1.218,-0.04 2.396,-0.065 3.863,-0.065 1.467,0 2.711,0.025 3.942,0.065 -0.051,-0.511 -0.091,-0.995 -0.104,-1.598"
           id="path3083"
           style="fill:#ffffff;fill-opacity:1;fill-rule:nonzero;stroke:none" /><path
           d="m 71.5,17.775 c -0.812,0.052 -1.833,0.065 -2.79,0.065 -1.008,0 -2.095,-0.013 -2.947,-0.065 0.066,0.628 0.092,2.331 0.092,3.169 l 0,2.986 c 0,0.852 -0.026,2.554 -0.092,3.183 0.839,-0.04 1.795,-0.065 2.816,-0.065 0.996,0 1.926,0.025 2.751,0.065 -0.066,-0.484 -0.092,-0.943 -0.105,-1.52 -0.733,0.014 -1.48,0.027 -2.357,0.027 -0.393,0 -0.8,0 -1.179,-0.013 -0.026,-0.21 -0.026,-0.524 -0.026,-0.707 l 0,-1.598 3.051,0 C 70.688,22.895 70.675,22.45 70.675,21.94 l -3.012,0 0,-1.939 c 0,-0.183 0,-0.511 0.026,-0.72 0.379,0 0.786,-0.013 1.179,-0.013 1.008,0 1.872,0.013 2.724,0.039 C 71.54,18.823 71.513,18.351 71.5,17.775"
           id="path3085"
           style="fill:#ffffff;fill-opacity:1;fill-rule:nonzero;stroke:none" /><path
           d="m 3.34,3.891 2.593,0 -1.31,3.13 L 3.34,3.891 z M 3.025,7.073 c 0.485,1.1 0.812,1.834 1.087,2.58 L 5.134,9.758 8.16,3.053 C 8.513,2.24 9.024,1.18 9.43,0.367 L 7.465,0.262 6.457,2.607 l -3.615,0 C 2.593,2.03 2.174,0.956 1.938,0.367 L 0,0.367 3.025,7.073"
           id="path3087"
           style="fill:#ffffff;fill-opacity:1;fill-rule:nonzero;stroke:none" /><path
           d="m 13.999,5.07 c 1.074,0 1.716,0.694 1.716,1.558 0,0.968 -0.55,1.545 -1.86,1.545 -0.354,0 -0.668,-0.013 -0.956,-0.04 l 0,-3.063 1.1,0 z m 2.214,-4.808 -2.135,3.471 -1.179,0 0,-1.48 c 0,-0.511 0.013,-1.519 0.053,-1.886 l -1.952,0 c 0.065,0.629 0.092,2.305 0.092,3.157 l 0,2.894 c 0,0.838 -0.027,2.528 -0.092,3.156 0.458,0 2.082,0.053 2.672,0.066 2.515,0.026 3.864,-1.192 3.837,-2.75 C 17.47,5.632 16.841,4.794 15.649,4.218 L 17.09,2.109 C 17.404,1.651 17.994,0.826 18.295,0.445 L 16.213,0.262"
           id="path3089"
           style="fill:#ffffff;fill-opacity:1;fill-rule:nonzero;stroke:none" /><path
           d="M 26.977,8.055 C 26.021,8.069 25.17,8.082 24.07,8.082 24.057,7.806 24.057,7.466 24.057,7.269 l 0,-5.016 c 0,-0.511 0.013,-1.519 0.052,-1.886 l -1.978,0 c 0.066,0.629 0.092,2.305 0.092,3.157 l 0,2.501 c 0,0.511 -0.013,1.349 -0.039,2.057 -1.1,0 -1.991,-0.013 -2.961,-0.027 0.04,0.472 0.053,1.062 0.053,1.598 1.218,-0.04 2.397,-0.065 3.864,-0.065 1.467,0 2.711,0.025 3.942,0.065 C 27.03,9.142 26.99,8.658 26.977,8.055"
           id="path3091"
           style="fill:#ffffff;fill-opacity:1;fill-rule:nonzero;stroke:none" /><path
           d="m 31.114,0.132 c -0.943,0 -2.069,0.34 -2.763,0.759 l 0.078,1.755 c 0.563,-0.472 1.703,-0.995 2.738,-0.995 0.838,0 1.388,0.406 1.388,1.192 0,1.545 -3.916,1.729 -3.916,4.204 0,1.637 1.27,2.75 3.038,2.75 0.931,0 1.821,-0.314 2.371,-0.68 l -0.445,-1.48 c -0.498,0.352 -1.271,0.641 -1.899,0.641 -0.786,0 -1.284,-0.433 -1.284,-1.087 0,-1.454 3.89,-1.559 3.89,-4.179 0,-1.702 -1.257,-2.88 -3.196,-2.88"
           id="path3093"
           style="fill:#ffffff;fill-opacity:1;fill-rule:nonzero;stroke:none" /><path
           d="m 41.656,5.828 c 0.904,0.42 1.257,0.905 1.257,1.428 0,0.525 -0.34,0.865 -0.838,0.865 -0.484,0 -0.93,-0.393 -0.93,-1.061 0,-0.393 0.17,-0.786 0.511,-1.232 z M 43.005,2.306 C 42.311,2.895 41.538,3.628 41.001,4.323 40.228,3.982 39.718,3.484 39.718,2.816 c 0,-0.694 0.51,-1.27 1.466,-1.27 0.656,0 1.258,0.288 1.821,0.76 z m -4.937,0.366 c 0,1.14 0.759,2.044 2.174,2.646 C 39.823,5.933 39.6,6.47 39.6,7.06 c 0,1.402 1.165,2.279 2.501,2.279 1.572,0 2.292,-1.087 2.292,-2.044 0,-0.89 -0.458,-1.663 -1.951,-2.383 0.419,-0.498 1.022,-1.126 1.624,-1.663 0.485,0.484 0.93,1.021 1.388,1.611 L 46.502,3.956 C 46.005,3.38 45.533,2.843 45.075,2.371 45.546,1.978 46.214,1.415 46.62,1.114 L 45.585,0 c -0.38,0.354 -1.06,0.97 -1.571,1.415 -1.035,-0.851 -2.03,-1.283 -3.065,-1.283 -1.559,0 -2.881,0.929 -2.881,2.54"
           id="path3095"
           style="fill:#ffffff;fill-opacity:1;fill-rule:nonzero;stroke:none" /><path
           d="m 56.703,0.367 c 0.078,0.629 0.105,2.24 0.105,3.091 l 0,0.956 -4.205,0 0,-2.161 c 0,-0.497 0.013,-1.519 0.053,-1.886 l -1.965,0 c 0.065,0.629 0.092,2.305 0.092,3.157 l 0,2.894 c 0,0.838 -0.027,2.528 -0.092,3.156 0.524,0 1.532,0.014 1.965,0.066 -0.04,-0.379 -0.053,-1.427 -0.053,-1.939 l 0,-1.873 4.205,0 0,0.59 c 0,0.838 -0.027,2.528 -0.105,3.156 0.524,0 1.545,0.014 1.99,0.066 C 58.641,9.261 58.628,8.213 58.628,7.701 l 0,-5.448 c 0,-0.497 0.013,-1.519 0.065,-1.886 l -1.99,0"
           id="path3097"
           style="fill:#ffffff;fill-opacity:1;fill-rule:nonzero;stroke:none" /><path
           d="m 69.13,7.701 0,-3.405 c 0,-1.519 -0.367,-2.371 -1.074,-3.077 -0.72,-0.708 -1.702,-1.087 -3.012,-1.087 -2.213,0 -3.746,1.283 -3.746,3.483 l 0,2.803 c 0,0.838 -0.026,2.528 -0.091,3.156 0.523,0 1.532,0.014 1.964,0.066 C 63.132,9.261 63.119,8.213 63.119,7.701 l 0,-3.64 c 0,-1.743 0.812,-2.385 2.148,-2.385 1.309,0 2.043,0.786 2.043,2.122 l 0,2.62 c 0,0.838 -0.026,2.528 -0.105,3.156 0.524,0 1.546,0.014 1.991,0.066 C 69.144,9.261 69.13,8.213 69.13,7.701"
           id="path3099"
           style="fill:#ffffff;fill-opacity:1;fill-rule:nonzero;stroke:none" /><path
           d="m 71.721,3.524 0.393,2.894 c 0.118,0.838 0.328,2.554 0.38,3.248 l 0.97,0.092 0.864,-1.913 2.2,-4.767 2.174,4.781 0.838,1.886 0.931,0 c 0.091,-0.76 0.314,-2.489 0.432,-3.327 L 81.296,3.524 C 81.413,2.672 81.688,1.048 81.832,0.367 L 79.986,0.262 c -0.013,0.38 -0.131,1.48 -0.21,1.991 L 79.305,5.815 C 78.689,4.44 77.026,0.76 76.829,0.249 L 76.096,0.171 c -0.21,0.511 -1.834,4.204 -2.462,5.605 L 73.188,2.253 C 73.123,1.742 73.018,0.734 73.005,0.367 l -1.821,0 c 0.158,0.681 0.419,2.305 0.537,3.157"
           id="path3101"
           style="fill:#ffffff;fill-opacity:1;fill-rule:nonzero;stroke:none" /><path
           d="m 86.205,3.891 2.593,0 -1.31,3.13 -1.283,-3.13 z m -0.314,3.182 c 0.485,1.1 0.811,1.834 1.087,2.58 l 1.021,0.105 3.026,-6.705 C 91.379,2.24 91.889,1.18 92.296,0.367 l -1.965,-0.105 -1.009,2.345 -3.615,0 C 85.459,2.03 85.039,0.956 84.803,0.367 l -1.938,0 3.026,6.706"
           id="path3103"
           style="fill:#ffffff;fill-opacity:1;fill-rule:nonzero;stroke:none" /><path
           d="m 93.918,3.524 0.039,3.09 c 0,0.838 0,2.41 -0.066,3.039 l 0.956,0.105 5.357,-6.274 0,2.934 c 0,0.838 -0.026,2.528 -0.105,3.156 0.524,0 1.48,0.014 1.926,0.066 -0.053,-0.379 -0.079,-1.427 -0.092,-1.939 l -0.066,-5.5 c 0,-0.511 0,-1.559 0.04,-1.925 L 100.99,0.171 95.659,6.365 95.646,2.253 c 0,-0.511 0.013,-1.519 0.053,-1.886 l -1.925,0 c 0.078,0.629 0.13,2.305 0.144,3.157"
           id="path3105"
           style="fill:#ffffff;fill-opacity:1;fill-rule:nonzero;stroke:none" /><path
           d="m 104.577,0.367 c 0.065,0.629 0.092,2.305 0.092,3.157 l 0,2.894 c 0,0.838 -0.027,2.528 -0.092,3.156 0.524,0 1.533,0.014 1.965,0.066 -0.039,-0.379 -0.053,-1.427 -0.053,-1.939 l 0,-5.448 c 0,-0.497 0.014,-1.519 0.053,-1.886 l -1.965,0"
           id="path3107"
           style="fill:#ffffff;fill-opacity:1;fill-rule:nonzero;stroke:none" /><path
           d="m 116.233,8.055 c -0.956,0.014 -1.808,0.027 -2.908,0.027 -0.013,-0.276 -0.013,-0.616 -0.013,-0.813 l 0,-5.016 c 0,-0.511 0.013,-1.519 0.052,-1.886 l -1.978,0 c 0.066,0.629 0.093,2.305 0.093,3.157 l 0,2.501 c 0,0.511 -0.014,1.349 -0.04,2.057 -1.1,0 -1.991,-0.013 -2.96,-0.027 0.039,0.472 0.052,1.062 0.052,1.598 1.219,-0.04 2.397,-0.065 3.864,-0.065 1.467,0 2.711,0.025 3.942,0.065 -0.052,-0.511 -0.091,-0.995 -0.104,-1.598"
           id="path3109"
           style="fill:#ffffff;fill-opacity:1;fill-rule:nonzero;stroke:none" /><path
           d="m 118.209,0.367 c 0.065,0.629 0.092,2.305 0.092,3.157 l 0,2.894 c 0,0.838 -0.027,2.528 -0.092,3.156 0.524,0 1.533,0.014 1.965,0.066 -0.039,-0.379 -0.053,-1.427 -0.053,-1.939 l 0,-5.448 c 0,-0.497 0.014,-1.519 0.053,-1.886 l -1.965,0"
           id="path3111"
           style="fill:#ffffff;fill-opacity:1;fill-rule:nonzero;stroke:none" /><path
           d="m 128.62,0.315 c -0.812,0.052 -1.833,0.065 -2.79,0.065 -1.008,0 -2.095,-0.013 -2.946,-0.065 0.065,0.628 0.091,2.331 0.091,3.169 l 0,2.986 c 0,0.852 -0.026,2.554 -0.091,3.183 0.838,-0.04 1.794,-0.065 2.816,-0.065 0.995,0 1.925,0.025 2.75,0.065 -0.065,-0.485 -0.091,-0.943 -0.105,-1.52 -0.733,0.014 -1.48,0.027 -2.357,0.027 -0.393,0 -0.799,0 -1.179,-0.013 -0.026,-0.21 -0.026,-0.524 -0.026,-0.707 l 0,-1.598 3.052,0 c -0.027,-0.406 -0.04,-0.852 -0.04,-1.362 l -3.012,0 0,-1.939 c 0,-0.183 0,-0.511 0.026,-0.72 0.38,0 0.786,-0.013 1.179,-0.013 1.008,0 1.873,0.013 2.724,0.039 -0.052,-0.484 -0.078,-0.956 -0.092,-1.532"
           id="path3113"
           style="fill:#ffffff;fill-opacity:1;fill-rule:nonzero;stroke:none" /><path
           d="m 132.823,0.132 c -0.943,0 -2.069,0.34 -2.763,0.759 l 0.078,1.755 c 0.564,-0.472 1.703,-0.995 2.738,-0.995 0.838,0 1.388,0.406 1.388,1.192 0,1.545 -3.916,1.729 -3.916,4.204 0,1.637 1.27,2.75 3.038,2.75 0.931,0 1.821,-0.314 2.371,-0.68 l -0.445,-1.48 c -0.498,0.352 -1.27,0.641 -1.899,0.641 -0.786,0 -1.284,-0.433 -1.284,-1.087 0,-1.454 3.89,-1.559 3.89,-4.179 0,-1.702 -1.257,-2.88 -3.196,-2.88"
           id="path3115"
           style="fill:#ffffff;fill-opacity:1;fill-rule:nonzero;stroke:none" /><path
           d="m 78.655,16.632 c 0,0.166 0.131,0.29 0.256,0.29 0.059,0 0.085,-0.02 0.165,-0.112 l 0.184,-0.223 c 0.052,-0.059 0.085,-0.078 0.118,-0.078 0.072,0 0.144,0.137 0.295,0.775 l 0.697,3.003 c 0.026,0.111 0.053,0.216 0.072,0.315 l -0.44,0 0.092,0.23 0.407,0 c 0.099,0.387 0.184,0.631 0.296,0.854 0.191,0.381 0.545,0.815 1.229,0.815 0.421,0 0.67,-0.197 0.67,-0.42 0,-0.159 -0.138,-0.309 -0.282,-0.309 -0.079,0 -0.125,0.059 -0.198,0.157 l -0.23,0.329 c -0.059,0.085 -0.111,0.144 -0.184,0.144 -0.164,0 -0.361,-0.19 -0.538,-0.906 l -0.165,-0.664 0.703,0 -0.092,-0.23 -0.663,0 -0.532,-2.162 c -0.27,-1.104 -0.71,-1.662 -0.914,-1.867 -0.164,-0.164 -0.341,-0.249 -0.558,-0.249 -0.276,0 -0.388,0.165 -0.388,0.308"
           id="path3117"
           style="fill:#ffffff;fill-opacity:1;fill-rule:nonzero;stroke:none" /><path
           d="m 83.648,18.63 c 0.315,0.632 0.532,1.407 0.532,1.853 0,0.231 -0.072,0.368 -0.249,0.368 -0.25,0 -0.526,-0.348 -0.75,-0.795 -0.315,-0.63 -0.532,-1.406 -0.532,-1.853 0,-0.23 0.073,-0.368 0.25,-0.368 0.25,0 0.526,0.349 0.749,0.795 z m -1.498,0.007 c 0,0.986 0.664,2.294 1.695,2.294 0.572,0 0.835,-0.395 0.835,-0.881 0,-0.986 -0.664,-2.293 -1.696,-2.293 -0.571,0 -0.834,0.394 -0.834,0.88"
           id="path3119"
           style="fill:#ffffff;fill-opacity:1;fill-rule:nonzero;stroke:none" /><path
           d="m 85.441,17.862 0.874,2.536 c 0.026,0.085 0.039,0.125 0.039,0.158 0,0.033 -0.033,0.052 -0.092,0.052 -0.072,0 -0.144,-0.039 -0.204,-0.098 -0.125,-0.125 -0.262,-0.355 -0.466,-0.69 l -0.059,0.013 c 0.204,0.395 0.361,0.67 0.525,0.834 0.152,0.152 0.322,0.224 0.546,0.224 0.125,0 0.361,-0.033 0.361,-0.165 0,-0.065 -0.013,-0.104 -0.328,-0.985 l -0.25,-0.703 0.033,-0.013 c 0.414,0.887 0.749,1.551 0.952,1.754 0.099,0.099 0.198,0.152 0.316,0.152 0.164,0 0.309,-0.086 0.309,-0.316 0,-0.125 -0.092,-0.296 -0.217,-0.401 -0.092,0.073 -0.302,0.191 -0.401,0.191 -0.066,0 -0.111,-0.027 -0.158,-0.072 -0.085,-0.086 -0.256,-0.389 -0.453,-0.782 -0.217,-0.434 -0.486,-1.006 -0.808,-1.689 l -0.519,0"
           id="path3121"
           style="fill:#ffffff;fill-opacity:1;fill-rule:nonzero;stroke:none" /><path
           d="m 90.111,17.757 c -0.151,0 -0.178,0.039 -0.178,0.125 0,0.066 0.027,0.164 0.164,0.519 l 0.815,2.201 -0.493,0 0.092,0.23 0.487,0 0.295,0.808 0.539,0 0.013,-0.026 -0.282,-0.782 0.657,0 -0.092,-0.23 -0.651,0 -0.788,-2.162 c -0.02,-0.059 -0.072,-0.203 -0.072,-0.244 0,-0.019 0.006,-0.039 0.045,-0.039 0.191,0 0.553,0.454 0.749,0.782 l 0.073,-0.032 c -0.184,-0.362 -0.749,-1.15 -1.373,-1.15"
           id="path3123"
           style="fill:#ffffff;fill-opacity:1;fill-rule:nonzero;stroke:none" /><path
           d="m 93.901,22.245 c 0,0.059 -0.052,0.085 -0.204,0.118 l -0.164,0.033 0,0.039 1.078,0.144 0.007,-0.012 -1.131,-3.082 0.026,-0.014 c 0.29,0.493 0.579,1.006 0.822,1.243 0.151,0.157 0.296,0.217 0.467,0.217 0.21,0 0.367,-0.105 0.42,-0.158 0.118,-0.118 0.164,-0.302 0.164,-0.506 0,-0.355 -0.138,-1.419 -0.749,-2.03 -0.138,-0.139 -0.519,-0.48 -0.867,-0.48 -0.23,0 -0.296,0.137 -0.296,0.236 0,0.184 0.19,0.316 0.335,0.316 0.053,0 0.079,-0.02 0.112,-0.106 l 0.066,-0.191 c 0.033,-0.084 0.039,-0.111 0.059,-0.111 0.052,0 0.157,0.151 0.249,0.336 0.25,0.498 0.487,1.498 0.487,2.01 0,0.125 -0.027,0.224 -0.092,0.289 -0.059,0.06 -0.125,0.079 -0.191,0.079 -0.072,0 -0.138,-0.033 -0.21,-0.105 -0.164,-0.164 -0.578,-0.834 -0.828,-1.334 -0.125,-0.25 -0.335,-0.71 -0.546,-1.314 l -0.525,0 1.432,4.087 c 0.04,0.112 0.079,0.236 0.079,0.296"
           id="path3125"
           style="fill:#ffffff;fill-opacity:1;fill-rule:nonzero;stroke:none" /><path
           d="m 96.968,19.393 c 0.401,0.119 0.651,0.242 0.848,0.44 0.236,0.236 0.269,0.525 0.269,0.644 0,0.151 -0.033,0.349 -0.197,0.349 -0.309,0 -0.716,-0.684 -0.92,-1.433 z m -0.775,-0.835 c 0,1.111 0.959,2.373 1.925,2.373 0.355,0 0.52,-0.178 0.52,-0.441 0,-0.276 -0.158,-0.565 -0.671,-0.821 -0.25,-0.125 -0.585,-0.243 -1.025,-0.362 -0.066,-0.263 -0.105,-0.538 -0.105,-0.788 0,-0.394 0.138,-0.526 0.296,-0.526 0.387,0 0.815,0.703 0.86,0.796 l 0.073,-0.04 c -0.053,-0.105 -0.539,-0.992 -1.216,-0.992 -0.466,0 -0.657,0.355 -0.657,0.801"
           id="path3127"
           style="fill:#ffffff;fill-opacity:1;fill-rule:nonzero;stroke:none" /></g></g></g></svg>